<svg width="317.3" height="70" viewBox="0 0 317.3 70" xmlns="http://www.w3.org/2000/svg"><defs><linearGradient id="gradient" x1="0%" y1="0%" x2="100%" y2="0%"><stop offset="0%" stop-color="#AA5CC3" /><stop offset="100%" stop-color="#00A4DC" /></linearGradient></defs><g id="svgGroup" stroke-linecap="round" fill-rule="nonzero" font-size="9pt" stroke="url(#gradient)" stroke-width="0.25mm" fill="url(#gradient)" style="stroke:url(#gradient);stroke-width:0.25mm;fill:url(#gradient)"><path d="M 196.5 70 L 184.5 70 A 2.385 2.385 0 0 1 182.799 69.298 A 3.132 3.132 0 0 1 182.75 69.25 A 2.614 2.614 0 0 1 182.206 68.479 A 2.349 2.349 0 0 1 182 67.5 L 182 2.5 A 2.633 2.633 0 0 1 182.144 1.614 A 2.281 2.281 0 0 1 182.75 0.7 A 2.484 2.484 0 0 1 184.5 0 L 195.3 0 A 5.382 5.382 0 0 1 196.224 0.074 Q 197.236 0.251 197.8 0.85 Q 198.415 1.504 198.676 1.951 A 1.91 1.91 0 0 1 198.8 2.2 L 216.4 33.7 L 234 2.2 A 4.745 4.745 0 0 1 234.204 1.891 Q 234.439 1.562 234.81 1.127 A 21.362 21.362 0 0 1 235.05 0.85 Q 235.635 0.187 236.798 0.041 A 5.651 5.651 0 0 1 237.5 0 L 248.2 0 A 2.852 2.852 0 0 1 249.184 0.164 A 2.53 2.53 0 0 1 250.05 0.7 A 2.325 2.325 0 0 1 250.797 2.364 A 3.12 3.12 0 0 1 250.8 2.5 L 250.8 67.5 A 2.385 2.385 0 0 1 250.098 69.202 A 3.132 3.132 0 0 1 250.05 69.25 A 2.508 2.508 0 0 1 248.234 70 A 3.201 3.201 0 0 1 248.2 70 L 236.3 70 A 2.659 2.659 0 0 1 235.259 69.801 A 2.52 2.52 0 0 1 234.45 69.25 A 2.614 2.614 0 0 1 233.906 68.479 A 2.349 2.349 0 0 1 233.7 67.5 L 233.7 30 L 222.5 50.9 Q 222 51.8 221.2 52.5 Q 220.479 53.131 219.272 53.193 A 5.256 5.256 0 0 1 219 53.2 L 213.8 53.2 A 4.515 4.515 0 0 1 212.909 53.117 Q 212.382 53.011 211.972 52.769 A 2.482 2.482 0 0 1 211.6 52.5 Q 210.8 51.8 210.3 50.9 L 199 30 L 199 67.5 A 2.484 2.484 0 0 1 198.3 69.25 A 2.325 2.325 0 0 1 196.636 69.997 A 3.12 3.12 0 0 1 196.5 70 Z M 92.2 70 L 80.2 70 A 2.633 2.633 0 0 1 79.314 69.857 A 2.281 2.281 0 0 1 78.4 69.25 Q 77.7 68.5 77.7 67.5 L 77.7 2.5 A 2.822 2.822 0 0 1 77.825 1.643 A 2.299 2.299 0 0 1 78.4 0.7 A 2.363 2.363 0 0 1 79.894 0.014 A 3.207 3.207 0 0 1 80.2 0 L 90.8 0 Q 92.494 0 93.245 0.745 A 1.874 1.874 0 0 1 93.25 0.75 Q 93.804 1.304 94.058 1.667 A 1.895 1.895 0 0 1 94.2 1.899 L 118.6 40.3 L 118.6 2.5 A 2.822 2.822 0 0 1 118.725 1.643 A 2.299 2.299 0 0 1 119.3 0.7 A 2.363 2.363 0 0 1 120.794 0.014 A 3.207 3.207 0 0 1 121.1 0 L 133.1 0 A 2.822 2.822 0 0 1 133.957 0.125 A 2.299 2.299 0 0 1 134.9 0.7 A 2.363 2.363 0 0 1 135.586 2.195 A 3.207 3.207 0 0 1 135.6 2.5 L 135.6 67.4 A 2.852 2.852 0 0 1 135.436 68.384 A 2.53 2.53 0 0 1 134.9 69.25 A 2.325 2.325 0 0 1 133.236 69.997 A 3.12 3.12 0 0 1 133.1 70 L 122.4 70 A 5.068 5.068 0 0 1 121.535 69.931 Q 121.073 69.851 120.71 69.677 A 2.194 2.194 0 0 1 120.05 69.2 A 32.179 32.179 0 0 1 119.748 68.874 Q 119.256 68.335 119.1 68.1 L 94.7 31.1 L 94.7 67.5 A 2.484 2.484 0 0 1 94 69.25 A 2.325 2.325 0 0 1 92.336 69.997 A 3.12 3.12 0 0 1 92.2 70 Z M 314.8 70 L 267.3 70 A 2.633 2.633 0 0 1 266.414 69.857 A 2.281 2.281 0 0 1 265.5 69.25 Q 264.8 68.5 264.8 67.5 L 264.8 2.5 A 2.822 2.822 0 0 1 264.925 1.643 A 2.299 2.299 0 0 1 265.5 0.7 A 2.363 2.363 0 0 1 266.994 0.014 A 3.207 3.207 0 0 1 267.3 0 L 314 0 A 2.822 2.822 0 0 1 314.857 0.125 A 2.299 2.299 0 0 1 315.8 0.7 A 2.363 2.363 0 0 1 316.486 2.195 A 3.207 3.207 0 0 1 316.5 2.5 L 316.5 11.9 A 2.822 2.822 0 0 1 316.375 12.757 A 2.299 2.299 0 0 1 315.8 13.7 A 2.363 2.363 0 0 1 314.306 14.386 A 3.207 3.207 0 0 1 314 14.4 L 282.1 14.4 L 282.1 27.9 L 311.8 27.9 A 2.633 2.633 0 0 1 312.686 28.044 A 2.281 2.281 0 0 1 313.6 28.65 A 2.581 2.581 0 0 1 314.297 30.364 A 3.357 3.357 0 0 1 314.3 30.5 L 314.3 39.2 Q 314.3 40.2 313.6 40.95 A 2.325 2.325 0 0 1 311.936 41.697 A 3.12 3.12 0 0 1 311.8 41.7 L 282.1 41.7 L 282.1 55.6 L 314.8 55.6 A 2.822 2.822 0 0 1 315.657 55.725 A 2.299 2.299 0 0 1 316.6 56.3 A 2.363 2.363 0 0 1 317.286 57.795 A 3.207 3.207 0 0 1 317.3 58.1 L 317.3 67.5 Q 317.3 68.5 316.6 69.25 A 2.325 2.325 0 0 1 314.936 69.997 A 3.12 3.12 0 0 1 314.8 70 Z M 14.4 70 L 2.1 70 A 1.901 1.901 0 0 1 0.942 69.603 A 2.648 2.648 0 0 1 0.65 69.35 Q 0 68.7 0 67.9 Q 0 67.4 0.1 67 L 23.6 2.8 A 3.854 3.854 0 0 1 24.465 1.234 A 4.852 4.852 0 0 1 24.85 0.85 A 3.141 3.141 0 0 1 26.092 0.181 Q 26.56 0.045 27.118 0.011 A 6.303 6.303 0 0 1 27.5 0 L 42.3 0 A 5.47 5.47 0 0 1 43.358 0.096 Q 44.319 0.286 44.95 0.85 A 4.432 4.432 0 0 1 45.757 1.793 A 3.728 3.728 0 0 1 46.2 2.8 L 69.6 67 A 1.904 1.904 0 0 1 69.789 67.671 A 2.337 2.337 0 0 1 69.8 67.9 A 1.901 1.901 0 0 1 69.403 69.059 A 2.648 2.648 0 0 1 69.15 69.35 A 2.189 2.189 0 0 1 68.34 69.876 A 2.169 2.169 0 0 1 67.6 70 L 55.3 70 A 4.782 4.782 0 0 1 54.456 69.931 Q 53.993 69.847 53.629 69.665 A 2.223 2.223 0 0 1 53.05 69.25 A 6.426 6.426 0 0 1 52.653 68.818 Q 52.273 68.361 52.124 67.967 A 1.759 1.759 0 0 1 52.1 67.9 L 48.2 57.7 L 21.5 57.7 L 17.7 67.9 A 2.414 2.414 0 0 1 17.503 68.33 Q 17.259 68.758 16.8 69.25 Q 16.1 70 14.4 70 Z M 34.9 16.9 L 25.6 43.3 L 44.2 43.3 L 34.9 16.9 Z M 165.5 70 L 152.1 70 A 2.633 2.633 0 0 1 151.214 69.857 A 2.281 2.281 0 0 1 150.3 69.25 Q 149.6 68.5 149.6 67.5 L 149.6 2.5 A 2.822 2.822 0 0 1 149.725 1.643 A 2.299 2.299 0 0 1 150.3 0.7 A 2.363 2.363 0 0 1 151.794 0.014 A 3.207 3.207 0 0 1 152.1 0 L 165.5 0 A 2.852 2.852 0 0 1 166.484 0.164 A 2.53 2.53 0 0 1 167.35 0.7 A 2.325 2.325 0 0 1 168.097 2.364 A 3.12 3.12 0 0 1 168.1 2.5 L 168.1 67.5 A 2.385 2.385 0 0 1 167.398 69.202 A 3.132 3.132 0 0 1 167.35 69.25 A 2.508 2.508 0 0 1 165.534 70 A 3.201 3.201 0 0 1 165.5 70 Z" vector-effect="non-scaling-stroke"/></g></svg>