<svg width="335.401" height="72.001" viewBox="0 0 335.401 72.001" xmlns="http://www.w3.org/2000/svg"><defs><linearGradient id="gradient" x1="0%" y1="0%" x2="100%" y2="0%"><stop offset="0%" stop-color="#AA5CC3" /><stop offset="100%" stop-color="#00A4DC" /></linearGradient></defs><g id="svgGroup" stroke-linecap="round" fill-rule="nonzero" font-size="9pt" stroke="url(#gradient)" stroke-width="0.25mm" fill="url(#gradient)" style="stroke:url(#gradient);stroke-width:0.25mm;fill:url(#gradient)"><path d="M 277.2 49.801 L 289.8 49.801 Q 290.701 49.801 291.333 50.008 A 2.524 2.524 0 0 1 291.95 50.301 A 5.305 5.305 0 0 1 292.991 51.219 A 6.314 6.314 0 0 1 293.3 51.601 A 10.598 10.598 0 0 0 294.47 53.335 A 13.781 13.781 0 0 0 295.55 54.501 A 8.892 8.892 0 0 0 297.328 55.815 Q 298.256 56.345 299.4 56.751 Q 301.8 57.601 305.2 57.601 A 30.232 30.232 0 0 0 308.237 57.458 Q 311.502 57.127 313.551 56.029 A 8.259 8.259 0 0 0 313.95 55.801 A 7.085 7.085 0 0 0 315.568 54.479 A 5.2 5.2 0 0 0 316.9 50.901 A 5.354 5.354 0 0 0 316.626 49.15 A 4.504 4.504 0 0 0 315.3 47.201 Q 313.7 45.801 310.15 44.651 A 53.889 53.889 0 0 0 307.702 43.927 Q 304.851 43.151 300.96 42.354 A 170.553 170.553 0 0 0 300.7 42.301 A 73.122 73.122 0 0 1 294.584 40.75 Q 290.801 39.605 287.75 38.151 A 23.193 23.193 0 0 1 283.36 35.46 A 17.697 17.697 0 0 1 279.6 31.451 Q 276.805 27.307 276.8 21.12 A 28.484 28.484 0 0 1 276.8 21.101 Q 276.8 15.001 280.25 10.201 A 21.398 21.398 0 0 1 286.63 4.385 A 27.383 27.383 0 0 1 289.9 2.701 A 31.122 31.122 0 0 1 297.021 0.614 Q 300.274 0.048 303.97 0.004 A 52.715 52.715 0 0 1 304.6 0.001 A 44.916 44.916 0 0 1 310.611 0.383 Q 313.713 0.802 316.394 1.681 A 27.777 27.777 0 0 1 316.75 1.801 Q 322 3.601 325.6 6.601 A 26.831 26.831 0 0 1 328.591 9.49 A 19.647 19.647 0 0 1 331.05 12.951 A 16.934 16.934 0 0 1 332.4 16.058 A 12.793 12.793 0 0 1 333 19.501 A 2.174 2.174 0 0 1 332.5 20.889 A 2.751 2.751 0 0 1 332.45 20.951 A 1.792 1.792 0 0 1 331.344 21.565 A 2.644 2.644 0 0 1 330.9 21.601 L 317.7 21.601 A 5.091 5.091 0 0 1 316.795 21.524 A 3.672 3.672 0 0 1 315.8 21.201 A 3.283 3.283 0 0 1 314.921 20.549 A 4.476 4.476 0 0 1 314.4 19.901 Q 313.8 17.701 311.25 16.051 Q 309.049 14.626 305.694 14.431 A 18.857 18.857 0 0 0 304.6 14.401 Q 301.713 14.401 299.665 15.068 A 8.482 8.482 0 0 0 297.75 15.951 A 5.015 5.015 0 0 0 295.386 19.559 A 7.274 7.274 0 0 0 295.3 20.701 Q 295.3 22.701 296.65 24.201 A 6.505 6.505 0 0 0 297.791 25.184 Q 299.083 26.079 301.15 26.801 A 44.168 44.168 0 0 0 303.348 27.498 Q 305.842 28.224 309.303 28.991 A 152.784 152.784 0 0 0 309.8 29.101 A 96.05 96.05 0 0 1 315.643 30.37 Q 318.477 31.085 320.86 31.909 A 41.665 41.665 0 0 1 324.5 33.351 A 24.19 24.19 0 0 1 328.425 35.572 Q 330.669 37.154 332.163 39.119 A 14.44 14.44 0 0 1 332.75 39.951 Q 335.291 43.834 335.396 49.604 A 27.51 27.51 0 0 1 335.4 50.101 A 19.803 19.803 0 0 1 334.365 56.602 A 17.421 17.421 0 0 1 331.5 61.801 Q 327.6 66.701 320.85 69.351 A 37.116 37.116 0 0 1 312.824 71.456 A 50.916 50.916 0 0 1 305.2 72.001 A 57.925 57.925 0 0 1 298.212 71.604 Q 294.705 71.177 291.747 70.29 A 28.764 28.764 0 0 1 288.6 69.151 A 29.907 29.907 0 0 1 283.766 66.546 Q 280.619 64.432 278.6 61.701 Q 275.2 57.101 275 51.901 A 1.901 1.901 0 0 1 275.397 50.742 A 2.648 2.648 0 0 1 275.65 50.451 A 2.189 2.189 0 0 1 276.46 49.925 A 2.169 2.169 0 0 1 277.2 49.801 Z M 227.9 71.001 L 215.3 71.001 A 2.633 2.633 0 0 1 214.414 70.857 A 2.281 2.281 0 0 1 213.5 70.251 Q 212.8 69.501 212.8 68.501 L 212.8 3.501 A 2.822 2.822 0 0 1 212.925 2.644 A 2.299 2.299 0 0 1 213.5 1.701 A 2.363 2.363 0 0 1 214.995 1.015 A 3.207 3.207 0 0 1 215.3 1.001 L 227.9 1.001 A 2.822 2.822 0 0 1 228.757 1.125 A 2.299 2.299 0 0 1 229.7 1.701 A 2.363 2.363 0 0 1 230.386 3.195 A 3.207 3.207 0 0 1 230.4 3.501 L 230.4 25.701 L 248.9 2.901 A 3.112 3.112 0 0 1 249.24 2.482 Q 249.624 2.08 250.24 1.657 A 9.723 9.723 0 0 1 250.25 1.651 A 3.422 3.422 0 0 1 251.282 1.184 Q 251.949 1.001 252.8 1.001 L 267.2 1.001 A 2.038 2.038 0 0 1 268.069 1.183 A 2.007 2.007 0 0 1 268.7 1.651 A 2.372 2.372 0 0 1 269.116 2.259 A 1.974 1.974 0 0 1 269.3 3.101 A 2.738 2.738 0 0 1 269.243 3.675 A 2.035 2.035 0 0 1 269 4.301 L 245 34.501 L 270.8 67.701 Q 271.131 68.032 271.188 68.637 A 2.814 2.814 0 0 1 271.2 68.901 A 2.029 2.029 0 0 1 270.757 70.165 A 2.694 2.694 0 0 1 270.6 70.351 Q 270 71.001 269.1 71.001 L 254.2 71.001 Q 252.4 71.001 251.45 70.201 Q 250.533 69.428 250.222 69.029 A 1.921 1.921 0 0 1 250.2 69.001 L 230.4 44.301 L 230.4 68.501 A 2.484 2.484 0 0 1 229.7 70.251 A 2.325 2.325 0 0 1 228.036 70.998 A 3.12 3.12 0 0 1 227.9 71.001 Z M 33.9 71.001 L 2.5 71.001 A 2.633 2.633 0 0 1 1.614 70.857 A 2.281 2.281 0 0 1 0.7 70.251 Q 0 69.501 0 68.501 L 0 3.501 A 2.822 2.822 0 0 1 0.125 2.644 A 2.299 2.299 0 0 1 0.7 1.701 A 2.363 2.363 0 0 1 2.195 1.015 A 3.207 3.207 0 0 1 2.5 1.001 L 33 1.001 A 50.62 50.62 0 0 1 38.781 1.31 Q 41.628 1.639 44.027 2.314 A 23.806 23.806 0 0 1 47.1 3.401 A 19.85 19.85 0 0 1 51.483 5.983 A 15.526 15.526 0 0 1 55.25 10.251 A 18.571 18.571 0 0 1 57.587 16.802 A 24.6 24.6 0 0 1 57.9 20.801 A 16.308 16.308 0 0 1 57.573 24.138 A 12.693 12.693 0 0 1 56.55 27.151 A 16.911 16.911 0 0 1 54.894 29.874 A 13.621 13.621 0 0 1 53.25 31.701 Q 51.757 33.079 50.411 33.871 A 10.002 10.002 0 0 1 49.6 34.301 Q 53.4 36.101 56.35 40.201 A 15.698 15.698 0 0 1 59.26 48.531 A 19.639 19.639 0 0 1 59.3 49.801 A 24.744 24.744 0 0 1 58.694 55.402 A 18.909 18.909 0 0 1 56.35 61.151 A 18.401 18.401 0 0 1 49.653 67.486 A 23.147 23.147 0 0 1 47.75 68.451 Q 42.851 70.662 36.033 70.956 A 49.571 49.571 0 0 1 33.9 71.001 Z M 18 41.501 L 18 58.001 L 31.9 58.001 Q 35.218 58.001 37.286 56.512 A 6.677 6.677 0 0 0 38.4 55.501 Q 40.6 53.001 40.6 49.801 A 8.989 8.989 0 0 0 40.046 46.599 A 8.109 8.109 0 0 0 38.35 43.901 Q 36.206 41.614 32.292 41.506 A 14.227 14.227 0 0 0 31.9 41.501 L 18 41.501 Z M 18 14.001 L 18 28.801 L 31 28.801 A 12.442 12.442 0 0 0 33.335 28.596 Q 34.646 28.345 35.664 27.787 A 6.07 6.07 0 0 0 37.15 26.651 Q 39.2 24.501 39.2 21.301 A 8.157 8.157 0 0 0 38.822 18.763 A 6.739 6.739 0 0 0 37.15 16.051 Q 35.452 14.353 32.349 14.061 A 14.42 14.42 0 0 0 31 14.001 L 18 14.001 Z M 91.41 71.426 Q 87.004 70.717 83.3 69.131 A 29.885 29.885 0 0 1 83 69.001 Q 76.2 66.001 72.4 59.951 A 25.815 25.815 0 0 1 69.322 52.662 Q 68.388 49.066 68.2 44.801 Q 68.1 40.501 68.1 36.151 Q 68.1 31.801 68.2 27.501 A 37.862 37.862 0 0 1 69.152 20.414 Q 70.19 16.049 72.31 12.577 A 23.79 23.79 0 0 1 72.45 12.351 Q 76.3 6.201 83.15 3.101 A 34.146 34.146 0 0 1 92.042 0.512 A 45.423 45.423 0 0 1 99 0.001 A 45.143 45.143 0 0 1 106.901 0.659 A 33.216 33.216 0 0 1 114.9 3.101 Q 121.7 6.201 125.6 12.351 A 25.812 25.812 0 0 1 128.849 20.171 Q 129.669 23.563 129.8 27.501 Q 130 31.801 130 36.151 Q 130 40.501 129.8 44.801 Q 129.5 53.901 125.65 59.951 Q 121.8 66.001 115 69.001 Q 108.2 72.001 99 72.001 A 47.755 47.755 0 0 1 91.41 71.426 Z M 99 57.601 Q 104.3 57.601 107.65 54.401 A 10.041 10.041 0 0 0 110.024 50.759 Q 110.64 49.196 110.937 47.248 A 25.012 25.012 0 0 0 111.2 44.201 Q 111.4 39.801 111.4 35.901 Q 111.4 32.001 111.2 27.801 A 25.58 25.58 0 0 0 110.882 24.648 Q 110.615 23.059 110.141 21.737 A 12.351 12.351 0 0 0 109.45 20.151 A 10.786 10.786 0 0 0 107.479 17.454 A 9.397 9.397 0 0 0 105.2 15.801 A 12.409 12.409 0 0 0 101.11 14.537 A 15.804 15.804 0 0 0 99 14.401 Q 95.6 14.401 92.9 15.801 Q 90.2 17.201 88.6 20.151 A 13.194 13.194 0 0 0 87.476 23.038 Q 87.107 24.416 86.931 26.037 A 27.043 27.043 0 0 0 86.8 27.801 Q 86.7 32.001 86.7 35.901 Q 86.7 39.801 86.8 44.201 A 24.271 24.271 0 0 0 87.238 47.976 Q 88.082 52.138 90.45 54.401 A 11.434 11.434 0 0 0 97.267 57.506 A 15.475 15.475 0 0 0 99 57.601 Z M 162.61 71.426 Q 158.204 70.717 154.5 69.131 A 29.885 29.885 0 0 1 154.2 69.001 Q 147.4 66.001 143.6 59.951 A 25.815 25.815 0 0 1 140.522 52.662 Q 139.588 49.066 139.4 44.801 Q 139.3 40.501 139.3 36.151 Q 139.3 31.801 139.4 27.501 A 37.862 37.862 0 0 1 140.352 20.414 Q 141.39 16.049 143.51 12.577 A 23.79 23.79 0 0 1 143.65 12.351 Q 147.5 6.201 154.35 3.101 A 34.146 34.146 0 0 1 163.242 0.512 A 45.423 45.423 0 0 1 170.2 0.001 A 45.143 45.143 0 0 1 178.101 0.659 A 33.216 33.216 0 0 1 186.1 3.101 Q 192.9 6.201 196.8 12.351 A 25.812 25.812 0 0 1 200.049 20.171 Q 200.869 23.563 201 27.501 Q 201.2 31.801 201.2 36.151 Q 201.2 40.501 201 44.801 Q 200.7 53.901 196.85 59.951 Q 193 66.001 186.2 69.001 Q 179.4 72.001 170.2 72.001 A 47.755 47.755 0 0 1 162.61 71.426 Z M 170.2 57.601 Q 175.5 57.601 178.85 54.401 A 10.041 10.041 0 0 0 181.224 50.759 Q 181.84 49.196 182.137 47.248 A 25.012 25.012 0 0 0 182.4 44.201 Q 182.6 39.801 182.6 35.901 Q 182.6 32.001 182.4 27.801 A 25.58 25.58 0 0 0 182.082 24.648 Q 181.815 23.059 181.341 21.737 A 12.351 12.351 0 0 0 180.65 20.151 A 10.786 10.786 0 0 0 178.679 17.454 A 9.397 9.397 0 0 0 176.4 15.801 A 12.409 12.409 0 0 0 172.31 14.537 A 15.804 15.804 0 0 0 170.2 14.401 Q 166.8 14.401 164.1 15.801 Q 161.4 17.201 159.8 20.151 A 13.194 13.194 0 0 0 158.676 23.038 Q 158.307 24.416 158.131 26.037 A 27.043 27.043 0 0 0 158 27.801 Q 157.9 32.001 157.9 35.901 Q 157.9 39.801 158 44.201 A 24.271 24.271 0 0 0 158.438 47.976 Q 159.282 52.138 161.65 54.401 A 11.434 11.434 0 0 0 168.467 57.506 A 15.475 15.475 0 0 0 170.2 57.601 Z" vector-effect="non-scaling-stroke"/></g></svg>