<svg width="481.401" height="72.001" viewBox="0 0 481.401 72.001" xmlns="http://www.w3.org/2000/svg"><defs><linearGradient id="gradient" x1="0%" y1="0%" x2="100%" y2="0%"><stop offset="0%" stop-color="#AA5CC3" /><stop offset="100%" stop-color="#00A4DC" /></linearGradient></defs><g id="svgGroup" stroke-linecap="round" fill-rule="nonzero" font-size="9pt" stroke="url(#gradient)" stroke-width="0.25mm" fill="url(#gradient)" style="stroke:url(#gradient);stroke-width:0.25mm;fill:url(#gradient)"><path d="M 348.2 71.001 L 300.7 71.001 A 2.633 2.633 0 0 1 299.814 70.857 A 2.281 2.281 0 0 1 298.9 70.251 Q 298.2 69.501 298.2 68.501 L 298.2 3.501 A 2.822 2.822 0 0 1 298.325 2.644 A 2.299 2.299 0 0 1 298.9 1.701 A 2.363 2.363 0 0 1 300.395 1.015 A 3.207 3.207 0 0 1 300.7 1.001 L 347.4 1.001 A 2.822 2.822 0 0 1 348.257 1.125 A 2.299 2.299 0 0 1 349.2 1.701 A 2.363 2.363 0 0 1 349.886 3.195 A 3.207 3.207 0 0 1 349.9 3.501 L 349.9 12.901 A 2.822 2.822 0 0 1 349.776 13.757 A 2.299 2.299 0 0 1 349.2 14.701 A 2.363 2.363 0 0 1 347.706 15.386 A 3.207 3.207 0 0 1 347.4 15.401 L 315.5 15.401 L 315.5 28.901 L 345.2 28.901 A 2.633 2.633 0 0 1 346.086 29.044 A 2.281 2.281 0 0 1 347 29.651 A 2.581 2.581 0 0 1 347.697 31.364 A 3.357 3.357 0 0 1 347.7 31.501 L 347.7 40.201 Q 347.7 41.201 347 41.951 A 2.325 2.325 0 0 1 345.336 42.698 A 3.12 3.12 0 0 1 345.2 42.701 L 315.5 42.701 L 315.5 56.601 L 348.2 56.601 A 2.822 2.822 0 0 1 349.057 56.725 A 2.299 2.299 0 0 1 350 57.301 A 2.363 2.363 0 0 1 350.686 58.795 A 3.207 3.207 0 0 1 350.7 59.101 L 350.7 68.501 Q 350.7 69.501 350 70.251 A 2.325 2.325 0 0 1 348.336 70.998 A 3.12 3.12 0 0 1 348.2 71.001 Z M 230 49.801 L 242.6 49.801 Q 243.501 49.801 244.133 50.008 A 2.524 2.524 0 0 1 244.75 50.301 A 5.305 5.305 0 0 1 245.791 51.219 A 6.314 6.314 0 0 1 246.1 51.601 A 10.598 10.598 0 0 0 247.27 53.335 A 13.781 13.781 0 0 0 248.35 54.501 A 8.892 8.892 0 0 0 250.128 55.815 Q 251.056 56.345 252.2 56.751 Q 254.6 57.601 258 57.601 A 30.232 30.232 0 0 0 261.037 57.458 Q 264.302 57.127 266.351 56.029 A 8.259 8.259 0 0 0 266.75 55.801 A 7.085 7.085 0 0 0 268.368 54.479 A 5.2 5.2 0 0 0 269.7 50.901 A 5.354 5.354 0 0 0 269.426 49.15 A 4.504 4.504 0 0 0 268.1 47.201 Q 266.5 45.801 262.95 44.651 A 53.889 53.889 0 0 0 260.502 43.927 Q 257.651 43.151 253.76 42.354 A 170.553 170.553 0 0 0 253.5 42.301 A 73.122 73.122 0 0 1 247.384 40.75 Q 243.601 39.605 240.55 38.151 A 23.193 23.193 0 0 1 236.16 35.46 A 17.697 17.697 0 0 1 232.4 31.451 Q 229.605 27.307 229.6 21.12 A 28.484 28.484 0 0 1 229.6 21.101 Q 229.6 15.001 233.05 10.201 A 21.398 21.398 0 0 1 239.43 4.385 A 27.383 27.383 0 0 1 242.7 2.701 A 31.122 31.122 0 0 1 249.821 0.614 Q 253.074 0.048 256.77 0.004 A 52.715 52.715 0 0 1 257.4 0.001 A 44.916 44.916 0 0 1 263.411 0.383 Q 266.513 0.802 269.194 1.681 A 27.777 27.777 0 0 1 269.55 1.801 Q 274.8 3.601 278.4 6.601 A 26.831 26.831 0 0 1 281.391 9.49 A 19.647 19.647 0 0 1 283.85 12.951 A 16.934 16.934 0 0 1 285.2 16.058 A 12.793 12.793 0 0 1 285.8 19.501 A 2.174 2.174 0 0 1 285.3 20.889 A 2.751 2.751 0 0 1 285.25 20.951 A 1.792 1.792 0 0 1 284.144 21.565 A 2.644 2.644 0 0 1 283.7 21.601 L 270.5 21.601 A 5.091 5.091 0 0 1 269.595 21.524 A 3.672 3.672 0 0 1 268.6 21.201 A 3.283 3.283 0 0 1 267.721 20.549 A 4.476 4.476 0 0 1 267.2 19.901 Q 266.6 17.701 264.05 16.051 Q 261.849 14.626 258.494 14.431 A 18.857 18.857 0 0 0 257.4 14.401 Q 254.513 14.401 252.465 15.068 A 8.482 8.482 0 0 0 250.55 15.951 A 5.015 5.015 0 0 0 248.186 19.559 A 7.274 7.274 0 0 0 248.1 20.701 Q 248.1 22.701 249.45 24.201 A 6.505 6.505 0 0 0 250.591 25.184 Q 251.883 26.079 253.95 26.801 A 44.168 44.168 0 0 0 256.148 27.498 Q 258.642 28.224 262.103 28.991 A 152.784 152.784 0 0 0 262.6 29.101 A 96.05 96.05 0 0 1 268.443 30.37 Q 271.277 31.085 273.66 31.909 A 41.665 41.665 0 0 1 277.3 33.351 A 24.19 24.19 0 0 1 281.225 35.572 Q 283.469 37.154 284.963 39.119 A 14.44 14.44 0 0 1 285.55 39.951 Q 288.091 43.834 288.196 49.604 A 27.51 27.51 0 0 1 288.2 50.101 A 19.803 19.803 0 0 1 287.165 56.602 A 17.421 17.421 0 0 1 284.3 61.801 Q 280.4 66.701 273.65 69.351 A 37.116 37.116 0 0 1 265.624 71.456 A 50.916 50.916 0 0 1 258 72.001 A 57.925 57.925 0 0 1 251.012 71.604 Q 247.505 71.177 244.547 70.29 A 28.764 28.764 0 0 1 241.4 69.151 A 29.907 29.907 0 0 1 236.566 66.546 Q 233.419 64.432 231.4 61.701 Q 228 57.101 227.8 51.901 A 1.901 1.901 0 0 1 228.197 50.742 A 2.648 2.648 0 0 1 228.45 50.451 A 2.189 2.189 0 0 1 229.26 49.925 A 2.169 2.169 0 0 1 230 49.801 Z M 423.2 49.801 L 435.8 49.801 Q 436.701 49.801 437.333 50.008 A 2.524 2.524 0 0 1 437.95 50.301 A 5.305 5.305 0 0 1 438.991 51.219 A 6.314 6.314 0 0 1 439.3 51.601 A 10.598 10.598 0 0 0 440.47 53.335 A 13.781 13.781 0 0 0 441.55 54.501 A 8.892 8.892 0 0 0 443.328 55.815 Q 444.256 56.345 445.4 56.751 Q 447.8 57.601 451.2 57.601 A 30.232 30.232 0 0 0 454.237 57.458 Q 457.502 57.127 459.551 56.029 A 8.259 8.259 0 0 0 459.95 55.801 A 7.085 7.085 0 0 0 461.568 54.479 A 5.2 5.2 0 0 0 462.9 50.901 A 5.354 5.354 0 0 0 462.626 49.15 A 4.504 4.504 0 0 0 461.3 47.201 Q 459.7 45.801 456.15 44.651 A 53.889 53.889 0 0 0 453.702 43.927 Q 450.851 43.151 446.96 42.354 A 170.553 170.553 0 0 0 446.7 42.301 A 73.122 73.122 0 0 1 440.584 40.75 Q 436.801 39.605 433.75 38.151 A 23.193 23.193 0 0 1 429.36 35.46 A 17.697 17.697 0 0 1 425.6 31.451 Q 422.805 27.307 422.8 21.12 A 28.484 28.484 0 0 1 422.8 21.101 Q 422.8 15.001 426.25 10.201 A 21.398 21.398 0 0 1 432.63 4.385 A 27.383 27.383 0 0 1 435.9 2.701 A 31.122 31.122 0 0 1 443.021 0.614 Q 446.274 0.048 449.97 0.004 A 52.715 52.715 0 0 1 450.6 0.001 A 44.916 44.916 0 0 1 456.611 0.383 Q 459.713 0.802 462.394 1.681 A 27.777 27.777 0 0 1 462.75 1.801 Q 468 3.601 471.6 6.601 A 26.831 26.831 0 0 1 474.591 9.49 A 19.647 19.647 0 0 1 477.05 12.951 A 16.934 16.934 0 0 1 478.4 16.058 A 12.793 12.793 0 0 1 479 19.501 A 2.174 2.174 0 0 1 478.5 20.889 A 2.751 2.751 0 0 1 478.45 20.951 A 1.792 1.792 0 0 1 477.344 21.565 A 2.644 2.644 0 0 1 476.9 21.601 L 463.7 21.601 A 5.091 5.091 0 0 1 462.795 21.524 A 3.672 3.672 0 0 1 461.8 21.201 A 3.283 3.283 0 0 1 460.921 20.549 A 4.476 4.476 0 0 1 460.4 19.901 Q 459.8 17.701 457.25 16.051 Q 455.049 14.626 451.694 14.431 A 18.857 18.857 0 0 0 450.6 14.401 Q 447.713 14.401 445.665 15.068 A 8.482 8.482 0 0 0 443.75 15.951 A 5.015 5.015 0 0 0 441.386 19.559 A 7.274 7.274 0 0 0 441.3 20.701 Q 441.3 22.701 442.65 24.201 A 6.505 6.505 0 0 0 443.791 25.184 Q 445.083 26.079 447.15 26.801 A 44.168 44.168 0 0 0 449.348 27.498 Q 451.842 28.224 455.303 28.991 A 152.784 152.784 0 0 0 455.8 29.101 A 96.05 96.05 0 0 1 461.643 30.37 Q 464.477 31.085 466.86 31.909 A 41.665 41.665 0 0 1 470.5 33.351 A 24.19 24.19 0 0 1 474.425 35.572 Q 476.669 37.154 478.163 39.119 A 14.44 14.44 0 0 1 478.75 39.951 Q 481.291 43.834 481.396 49.604 A 27.51 27.51 0 0 1 481.4 50.101 A 19.803 19.803 0 0 1 480.365 56.602 A 17.421 17.421 0 0 1 477.5 61.801 Q 473.6 66.701 466.85 69.351 A 37.116 37.116 0 0 1 458.824 71.456 A 50.916 50.916 0 0 1 451.2 72.001 A 57.925 57.925 0 0 1 444.212 71.604 Q 440.705 71.177 437.747 70.29 A 28.764 28.764 0 0 1 434.6 69.151 A 29.907 29.907 0 0 1 429.766 66.546 Q 426.619 64.432 424.6 61.701 Q 421.2 57.101 421 51.901 A 1.901 1.901 0 0 1 421.397 50.742 A 2.648 2.648 0 0 1 421.65 50.451 A 2.189 2.189 0 0 1 422.46 49.925 A 2.169 2.169 0 0 1 423.2 49.801 Z M 152.3 71.001 L 137.9 71.001 A 2.112 2.112 0 0 1 136.371 70.371 A 2.638 2.638 0 0 1 136.35 70.351 Q 135.7 69.701 135.7 68.901 A 1.887 1.887 0 0 1 135.799 68.303 A 2.009 2.009 0 0 1 135.8 68.301 A 2.358 2.358 0 0 1 135.974 67.907 A 2.891 2.891 0 0 1 136.1 67.701 L 157.9 35.301 L 137.7 4.301 A 2.889 2.889 0 0 1 137.458 3.626 A 2.45 2.45 0 0 1 137.4 3.101 A 2.029 2.029 0 0 1 137.843 1.836 A 2.694 2.694 0 0 1 138 1.651 Q 138.6 1.001 139.5 1.001 L 154 1.001 A 4.81 4.81 0 0 1 154.889 1.077 Q 155.391 1.172 155.784 1.382 A 2.416 2.416 0 0 1 156.3 1.751 Q 156.854 2.27 157.216 2.717 A 5.176 5.176 0 0 1 157.5 3.101 L 169.4 21.201 L 181.5 3.101 Q 181.772 2.693 182.229 2.216 A 12.266 12.266 0 0 1 182.7 1.751 A 2.579 2.579 0 0 1 183.711 1.176 Q 184.274 1.001 185 1.001 L 198.8 1.001 A 1.901 1.901 0 0 1 199.959 1.397 A 2.648 2.648 0 0 1 200.25 1.651 Q 200.9 2.301 200.9 3.101 Q 200.9 3.801 200.5 4.301 L 180.2 35.201 L 202.2 67.701 A 1.772 1.772 0 0 1 202.361 67.996 A 1.363 1.363 0 0 1 202.45 68.301 Q 202.5 68.601 202.5 68.901 A 2.029 2.029 0 0 1 202.057 70.165 A 2.694 2.694 0 0 1 201.9 70.351 Q 201.3 71.001 200.4 71.001 L 185.5 71.001 A 4.836 4.836 0 0 1 184.556 70.914 Q 183.711 70.746 183.15 70.251 Q 182.443 69.627 182.117 69.176 A 2.447 2.447 0 0 1 182 69.001 L 168.8 49.801 L 155.7 69.001 Q 155.439 69.435 154.8 70.059 A 13.673 13.673 0 0 1 154.6 70.251 A 2.579 2.579 0 0 1 153.589 70.825 Q 153.027 71.001 152.3 71.001 Z M 393.2 71.001 L 380 71.001 A 2.633 2.633 0 0 1 379.114 70.857 A 2.281 2.281 0 0 1 378.2 70.251 Q 377.5 69.501 377.5 68.501 L 377.5 16.701 L 359.7 16.701 A 2.633 2.633 0 0 1 358.814 16.557 A 2.281 2.281 0 0 1 357.9 15.951 Q 357.2 15.201 357.2 14.201 L 357.2 3.501 A 2.822 2.822 0 0 1 357.325 2.644 A 2.299 2.299 0 0 1 357.9 1.701 A 2.363 2.363 0 0 1 359.395 1.015 A 3.207 3.207 0 0 1 359.7 1.001 L 413.5 1.001 A 2.822 2.822 0 0 1 414.357 1.125 A 2.299 2.299 0 0 1 415.3 1.701 A 2.363 2.363 0 0 1 415.986 3.195 A 3.207 3.207 0 0 1 416 3.501 L 416 14.201 Q 416 15.201 415.3 15.951 A 2.325 2.325 0 0 1 413.636 16.698 A 3.12 3.12 0 0 1 413.5 16.701 L 395.7 16.701 L 395.7 68.501 Q 395.7 69.501 395 70.251 A 2.325 2.325 0 0 1 393.336 70.998 A 3.12 3.12 0 0 1 393.2 71.001 Z M 33.9 71.001 L 2.5 71.001 A 2.633 2.633 0 0 1 1.614 70.857 A 2.281 2.281 0 0 1 0.7 70.251 Q 0 69.501 0 68.501 L 0 3.501 A 2.822 2.822 0 0 1 0.125 2.644 A 2.299 2.299 0 0 1 0.7 1.701 A 2.363 2.363 0 0 1 2.195 1.015 A 3.207 3.207 0 0 1 2.5 1.001 L 33 1.001 A 50.62 50.62 0 0 1 38.781 1.31 Q 41.628 1.639 44.027 2.314 A 23.806 23.806 0 0 1 47.1 3.401 A 19.85 19.85 0 0 1 51.483 5.983 A 15.526 15.526 0 0 1 55.25 10.251 A 18.571 18.571 0 0 1 57.587 16.802 A 24.6 24.6 0 0 1 57.9 20.801 A 16.308 16.308 0 0 1 57.573 24.138 A 12.693 12.693 0 0 1 56.55 27.151 A 16.911 16.911 0 0 1 54.894 29.874 A 13.621 13.621 0 0 1 53.25 31.701 Q 51.757 33.079 50.411 33.871 A 10.002 10.002 0 0 1 49.6 34.301 Q 53.4 36.101 56.35 40.201 A 15.698 15.698 0 0 1 59.26 48.531 A 19.639 19.639 0 0 1 59.3 49.801 A 24.744 24.744 0 0 1 58.694 55.402 A 18.909 18.909 0 0 1 56.35 61.151 A 18.401 18.401 0 0 1 49.653 67.486 A 23.147 23.147 0 0 1 47.75 68.451 Q 42.851 70.662 36.033 70.956 A 49.571 49.571 0 0 1 33.9 71.001 Z M 18 41.501 L 18 58.001 L 31.9 58.001 Q 35.218 58.001 37.286 56.512 A 6.677 6.677 0 0 0 38.4 55.501 Q 40.6 53.001 40.6 49.801 A 8.989 8.989 0 0 0 40.046 46.599 A 8.109 8.109 0 0 0 38.35 43.901 Q 36.206 41.614 32.292 41.506 A 14.227 14.227 0 0 0 31.9 41.501 L 18 41.501 Z M 18 14.001 L 18 28.801 L 31 28.801 A 12.442 12.442 0 0 0 33.335 28.596 Q 34.646 28.345 35.664 27.787 A 6.07 6.07 0 0 0 37.15 26.651 Q 39.2 24.501 39.2 21.301 A 8.157 8.157 0 0 0 38.822 18.763 A 6.739 6.739 0 0 0 37.15 16.051 Q 35.452 14.353 32.349 14.061 A 14.42 14.42 0 0 0 31 14.001 L 18 14.001 Z M 91.41 71.426 Q 87.004 70.717 83.3 69.131 A 29.885 29.885 0 0 1 83 69.001 Q 76.2 66.001 72.4 59.951 A 25.815 25.815 0 0 1 69.322 52.662 Q 68.388 49.066 68.2 44.801 Q 68.1 40.501 68.1 36.151 Q 68.1 31.801 68.2 27.501 A 37.862 37.862 0 0 1 69.152 20.414 Q 70.19 16.049 72.31 12.577 A 23.79 23.79 0 0 1 72.45 12.351 Q 76.3 6.201 83.15 3.101 A 34.146 34.146 0 0 1 92.042 0.512 A 45.423 45.423 0 0 1 99 0.001 A 45.143 45.143 0 0 1 106.901 0.659 A 33.216 33.216 0 0 1 114.9 3.101 Q 121.7 6.201 125.6 12.351 A 25.812 25.812 0 0 1 128.849 20.171 Q 129.669 23.563 129.8 27.501 Q 130 31.801 130 36.151 Q 130 40.501 129.8 44.801 Q 129.5 53.901 125.65 59.951 Q 121.8 66.001 115 69.001 Q 108.2 72.001 99 72.001 A 47.755 47.755 0 0 1 91.41 71.426 Z M 99 57.601 Q 104.3 57.601 107.65 54.401 A 10.041 10.041 0 0 0 110.024 50.759 Q 110.64 49.196 110.937 47.248 A 25.012 25.012 0 0 0 111.2 44.201 Q 111.4 39.801 111.4 35.901 Q 111.4 32.001 111.2 27.801 A 25.58 25.58 0 0 0 110.882 24.648 Q 110.615 23.059 110.141 21.737 A 12.351 12.351 0 0 0 109.45 20.151 A 10.786 10.786 0 0 0 107.479 17.454 A 9.397 9.397 0 0 0 105.2 15.801 A 12.409 12.409 0 0 0 101.11 14.537 A 15.804 15.804 0 0 0 99 14.401 Q 95.6 14.401 92.9 15.801 Q 90.2 17.201 88.6 20.151 A 13.194 13.194 0 0 0 87.476 23.038 Q 87.107 24.416 86.931 26.037 A 27.043 27.043 0 0 0 86.8 27.801 Q 86.7 32.001 86.7 35.901 Q 86.7 39.801 86.8 44.201 A 24.271 24.271 0 0 0 87.238 47.976 Q 88.082 52.138 90.45 54.401 A 11.434 11.434 0 0 0 97.267 57.506 A 15.475 15.475 0 0 0 99 57.601 Z" vector-effect="non-scaling-stroke"/></g></svg>