<svg width="453.601" height="72.001" viewBox="0 0 453.601 72.001" xmlns="http://www.w3.org/2000/svg"><defs><linearGradient id="gradient" x1="0%" y1="0%" x2="100%" y2="0%"><stop offset="0%" stop-color="#AA5CC3" /><stop offset="100%" stop-color="#00A4DC" /></linearGradient></defs><g id="svgGroup" stroke-linecap="round" fill-rule="nonzero" font-size="9pt" stroke="url(#gradient)" stroke-width="0.25mm" fill="url(#gradient)" style="stroke:url(#gradient);stroke-width:0.25mm;fill:url(#gradient)"><path d="M 314.3 71.001 L 266.8 71.001 A 2.633 2.633 0 0 1 265.914 70.857 A 2.281 2.281 0 0 1 265 70.251 Q 264.3 69.501 264.3 68.501 L 264.3 3.501 A 2.822 2.822 0 0 1 264.425 2.644 A 2.299 2.299 0 0 1 265 1.701 A 2.363 2.363 0 0 1 266.495 1.015 A 3.207 3.207 0 0 1 266.8 1.001 L 313.5 1.001 A 2.822 2.822 0 0 1 314.357 1.125 A 2.299 2.299 0 0 1 315.3 1.701 A 2.363 2.363 0 0 1 315.986 3.195 A 3.207 3.207 0 0 1 316 3.501 L 316 12.901 A 2.822 2.822 0 0 1 315.876 13.757 A 2.299 2.299 0 0 1 315.3 14.701 A 2.363 2.363 0 0 1 313.806 15.386 A 3.207 3.207 0 0 1 313.5 15.401 L 281.6 15.401 L 281.6 28.901 L 311.3 28.901 A 2.633 2.633 0 0 1 312.186 29.044 A 2.281 2.281 0 0 1 313.1 29.651 A 2.581 2.581 0 0 1 313.797 31.364 A 3.357 3.357 0 0 1 313.8 31.501 L 313.8 40.201 Q 313.8 41.201 313.1 41.951 A 2.325 2.325 0 0 1 311.436 42.698 A 3.12 3.12 0 0 1 311.3 42.701 L 281.6 42.701 L 281.6 56.601 L 314.3 56.601 A 2.822 2.822 0 0 1 315.157 56.725 A 2.299 2.299 0 0 1 316.1 57.301 A 2.363 2.363 0 0 1 316.786 58.795 A 3.207 3.207 0 0 1 316.8 59.101 L 316.8 68.501 Q 316.8 69.501 316.1 70.251 A 2.325 2.325 0 0 1 314.436 70.998 A 3.12 3.12 0 0 1 314.3 71.001 Z M 395.4 49.801 L 408 49.801 Q 408.901 49.801 409.533 50.008 A 2.524 2.524 0 0 1 410.15 50.301 A 5.305 5.305 0 0 1 411.191 51.219 A 6.314 6.314 0 0 1 411.5 51.601 A 10.598 10.598 0 0 0 412.67 53.335 A 13.781 13.781 0 0 0 413.75 54.501 A 8.892 8.892 0 0 0 415.528 55.815 Q 416.456 56.345 417.6 56.751 Q 420 57.601 423.4 57.601 A 30.232 30.232 0 0 0 426.437 57.458 Q 429.702 57.127 431.751 56.029 A 8.259 8.259 0 0 0 432.15 55.801 A 7.085 7.085 0 0 0 433.768 54.479 A 5.2 5.2 0 0 0 435.1 50.901 A 5.354 5.354 0 0 0 434.826 49.15 A 4.504 4.504 0 0 0 433.5 47.201 Q 431.9 45.801 428.35 44.651 A 53.889 53.889 0 0 0 425.902 43.927 Q 423.051 43.151 419.16 42.354 A 170.553 170.553 0 0 0 418.9 42.301 A 73.122 73.122 0 0 1 412.784 40.75 Q 409.001 39.605 405.95 38.151 A 23.193 23.193 0 0 1 401.56 35.46 A 17.697 17.697 0 0 1 397.8 31.451 Q 395.005 27.307 395 21.12 A 28.484 28.484 0 0 1 395 21.101 Q 395 15.001 398.45 10.201 A 21.398 21.398 0 0 1 404.83 4.385 A 27.383 27.383 0 0 1 408.1 2.701 A 31.122 31.122 0 0 1 415.221 0.614 Q 418.474 0.048 422.17 0.004 A 52.715 52.715 0 0 1 422.8 0.001 A 44.916 44.916 0 0 1 428.811 0.383 Q 431.913 0.802 434.594 1.681 A 27.777 27.777 0 0 1 434.95 1.801 Q 440.2 3.601 443.8 6.601 A 26.831 26.831 0 0 1 446.791 9.49 A 19.647 19.647 0 0 1 449.25 12.951 A 16.934 16.934 0 0 1 450.6 16.058 A 12.793 12.793 0 0 1 451.2 19.501 A 2.174 2.174 0 0 1 450.7 20.889 A 2.751 2.751 0 0 1 450.65 20.951 A 1.792 1.792 0 0 1 449.544 21.565 A 2.644 2.644 0 0 1 449.1 21.601 L 435.9 21.601 A 5.091 5.091 0 0 1 434.995 21.524 A 3.672 3.672 0 0 1 434 21.201 A 3.283 3.283 0 0 1 433.121 20.549 A 4.476 4.476 0 0 1 432.6 19.901 Q 432 17.701 429.45 16.051 Q 427.249 14.626 423.894 14.431 A 18.857 18.857 0 0 0 422.8 14.401 Q 419.913 14.401 417.865 15.068 A 8.482 8.482 0 0 0 415.95 15.951 A 5.015 5.015 0 0 0 413.586 19.559 A 7.274 7.274 0 0 0 413.5 20.701 Q 413.5 22.701 414.85 24.201 A 6.505 6.505 0 0 0 415.991 25.184 Q 417.283 26.079 419.35 26.801 A 44.168 44.168 0 0 0 421.548 27.498 Q 424.042 28.224 427.503 28.991 A 152.784 152.784 0 0 0 428 29.101 A 96.05 96.05 0 0 1 433.843 30.37 Q 436.677 31.085 439.06 31.909 A 41.665 41.665 0 0 1 442.7 33.351 A 24.19 24.19 0 0 1 446.625 35.572 Q 448.869 37.154 450.363 39.119 A 14.44 14.44 0 0 1 450.95 39.951 Q 453.491 43.834 453.596 49.604 A 27.51 27.51 0 0 1 453.6 50.101 A 19.803 19.803 0 0 1 452.565 56.602 A 17.421 17.421 0 0 1 449.7 61.801 Q 445.8 66.701 439.05 69.351 A 37.116 37.116 0 0 1 431.024 71.456 A 50.916 50.916 0 0 1 423.4 72.001 A 57.925 57.925 0 0 1 416.412 71.604 Q 412.905 71.177 409.947 70.29 A 28.764 28.764 0 0 1 406.8 69.151 A 29.907 29.907 0 0 1 401.966 66.546 Q 398.819 64.432 396.8 61.701 Q 393.4 57.101 393.2 51.901 A 1.901 1.901 0 0 1 393.597 50.742 A 2.648 2.648 0 0 1 393.85 50.451 A 2.189 2.189 0 0 1 394.66 49.925 A 2.169 2.169 0 0 1 395.4 49.801 Z M 15.1 71.001 L 2.5 71.001 A 2.633 2.633 0 0 1 1.614 70.857 A 2.281 2.281 0 0 1 0.7 70.251 Q 0 69.501 0 68.501 L 0 3.501 A 2.822 2.822 0 0 1 0.125 2.644 A 2.299 2.299 0 0 1 0.7 1.701 A 2.363 2.363 0 0 1 2.195 1.015 A 3.207 3.207 0 0 1 2.5 1.001 L 48.5 1.001 A 2.822 2.822 0 0 1 49.357 1.125 A 2.299 2.299 0 0 1 50.3 1.701 A 2.363 2.363 0 0 1 50.986 3.195 A 3.207 3.207 0 0 1 51 3.501 L 51 13.601 A 2.822 2.822 0 0 1 50.876 14.457 A 2.299 2.299 0 0 1 50.3 15.401 A 2.363 2.363 0 0 1 48.806 16.086 A 3.207 3.207 0 0 1 48.5 16.101 L 17.6 16.101 L 17.6 30.801 L 46.5 30.801 A 2.633 2.633 0 0 1 47.386 30.944 A 2.281 2.281 0 0 1 48.3 31.551 A 2.581 2.581 0 0 1 48.997 33.264 A 3.357 3.357 0 0 1 49 33.401 L 49 43.401 Q 49 44.401 48.3 45.151 A 2.325 2.325 0 0 1 46.636 45.898 A 3.12 3.12 0 0 1 46.5 45.901 L 17.6 45.901 L 17.6 68.501 A 2.484 2.484 0 0 1 16.9 70.251 A 2.325 2.325 0 0 1 15.236 70.998 A 3.12 3.12 0 0 1 15.1 71.001 Z M 343.6 71.001 L 330.7 71.001 A 2.633 2.633 0 0 1 329.814 70.857 A 2.281 2.281 0 0 1 328.9 70.251 Q 328.2 69.501 328.2 68.501 L 328.2 3.501 A 2.822 2.822 0 0 1 328.325 2.644 A 2.299 2.299 0 0 1 328.9 1.701 A 2.363 2.363 0 0 1 330.395 1.015 A 3.207 3.207 0 0 1 330.7 1.001 L 357.9 1.001 A 45.848 45.848 0 0 1 366.003 1.672 Q 370.502 2.481 374.084 4.264 A 23.199 23.199 0 0 1 378.3 6.951 A 19.369 19.369 0 0 1 385.44 19.887 A 28.391 28.391 0 0 1 385.7 23.801 Q 385.7 30.901 382.3 35.801 Q 378.9 40.701 373.3 43.201 L 387 67.801 A 3.34 3.34 0 0 1 387.183 68.236 Q 387.264 68.478 387.289 68.701 A 1.776 1.776 0 0 1 387.3 68.901 A 1.901 1.901 0 0 1 386.903 70.059 A 2.648 2.648 0 0 1 386.65 70.351 Q 386 71.001 385.2 71.001 L 371.9 71.001 Q 370.679 71.001 369.87 70.608 A 2.635 2.635 0 0 1 369.1 70.051 A 10.89 10.89 0 0 1 368.518 69.387 Q 368.258 69.064 368.064 68.761 A 4.981 4.981 0 0 1 367.8 68.301 L 356.4 46.301 L 346.2 46.301 L 346.2 68.501 A 2.385 2.385 0 0 1 345.498 70.202 A 3.132 3.132 0 0 1 345.45 70.251 A 2.508 2.508 0 0 1 343.634 71 A 3.201 3.201 0 0 1 343.6 71.001 Z M 346.2 14.901 L 346.2 32.101 L 357.7 32.101 A 15.3 15.3 0 0 0 360.346 31.887 Q 363.116 31.4 364.75 29.801 A 7.651 7.651 0 0 0 366.924 25.614 A 11.027 11.027 0 0 0 367.1 23.601 Q 367.1 19.701 364.85 17.301 A 6.824 6.824 0 0 0 362.158 15.578 Q 360.303 14.901 357.7 14.901 L 346.2 14.901 Z M 181.5 71.001 L 135.5 71.001 A 2.633 2.633 0 0 1 134.614 70.857 A 2.281 2.281 0 0 1 133.7 70.251 Q 133 69.501 133 68.501 L 133 3.501 A 2.822 2.822 0 0 1 133.125 2.644 A 2.299 2.299 0 0 1 133.7 1.701 A 2.363 2.363 0 0 1 135.195 1.015 A 3.207 3.207 0 0 1 135.5 1.001 L 148.7 1.001 A 2.822 2.822 0 0 1 149.557 1.125 A 2.299 2.299 0 0 1 150.5 1.701 A 2.363 2.363 0 0 1 151.186 3.195 A 3.207 3.207 0 0 1 151.2 3.501 L 151.2 55.901 L 181.5 55.901 A 2.633 2.633 0 0 1 182.386 56.044 A 2.281 2.281 0 0 1 183.3 56.651 A 2.581 2.581 0 0 1 183.997 58.364 A 3.357 3.357 0 0 1 184 58.501 L 184 68.501 A 2.484 2.484 0 0 1 183.3 70.251 A 2.325 2.325 0 0 1 181.636 70.998 A 3.12 3.12 0 0 1 181.5 71.001 Z M 221.7 71.001 L 195.2 71.001 A 2.633 2.633 0 0 1 194.314 70.857 A 2.281 2.281 0 0 1 193.4 70.251 Q 192.7 69.501 192.7 68.501 L 192.7 3.501 A 2.822 2.822 0 0 1 192.825 2.644 A 2.299 2.299 0 0 1 193.4 1.701 A 2.363 2.363 0 0 1 194.895 1.015 A 3.207 3.207 0 0 1 195.2 1.001 L 221.2 1.001 Q 231 1.001 237.9 4.151 Q 244.8 7.301 248.5 13.351 A 25.871 25.871 0 0 1 251.53 20.82 Q 252.299 23.998 252.475 27.674 A 44.659 44.659 0 0 1 252.5 28.301 A 447.003 447.003 0 0 1 252.561 31.446 Q 252.6 33.938 252.6 36.001 Q 252.6 38.836 252.526 42.411 A 458.889 458.889 0 0 1 252.5 43.601 A 43.936 43.936 0 0 1 251.757 50.126 Q 250.769 55.188 248.55 59.001 Q 245 65.101 238.25 68.051 Q 232.4 70.607 224.259 70.948 A 61.182 61.182 0 0 1 221.7 71.001 Z M 210.7 15.401 L 210.7 56.601 L 221.2 56.601 Q 224.576 56.601 227.059 55.768 A 11.708 11.708 0 0 0 228.35 55.251 Q 231.2 53.901 232.65 51.001 A 12.838 12.838 0 0 0 233.605 48.347 Q 234.141 46.191 234.2 43.401 A 134.029 134.029 0 0 0 234.355 40.814 Q 234.415 39.596 234.443 38.509 A 79.324 79.324 0 0 0 234.45 38.201 Q 234.5 35.901 234.45 33.601 Q 234.4 31.301 234.2 28.501 Q 234.073 24.172 232.669 21.322 A 9.554 9.554 0 0 0 230.65 18.551 Q 227.926 15.989 223.051 15.51 A 24.096 24.096 0 0 0 220.7 15.401 L 210.7 15.401 Z M 82.81 71.426 Q 78.404 70.717 74.7 69.131 A 29.885 29.885 0 0 1 74.4 69.001 Q 67.6 66.001 63.8 59.951 A 25.815 25.815 0 0 1 60.722 52.662 Q 59.788 49.066 59.6 44.801 Q 59.5 40.501 59.5 36.151 Q 59.5 31.801 59.6 27.501 A 37.862 37.862 0 0 1 60.552 20.414 Q 61.59 16.049 63.71 12.577 A 23.79 23.79 0 0 1 63.85 12.351 Q 67.7 6.201 74.55 3.101 A 34.146 34.146 0 0 1 83.442 0.512 A 45.423 45.423 0 0 1 90.4 0.001 A 45.143 45.143 0 0 1 98.301 0.659 A 33.216 33.216 0 0 1 106.3 3.101 Q 113.1 6.201 117 12.351 A 25.812 25.812 0 0 1 120.249 20.171 Q 121.069 23.563 121.2 27.501 Q 121.4 31.801 121.4 36.151 Q 121.4 40.501 121.2 44.801 Q 120.9 53.901 117.05 59.951 Q 113.2 66.001 106.4 69.001 Q 99.6 72.001 90.4 72.001 A 47.755 47.755 0 0 1 82.81 71.426 Z M 90.4 57.601 Q 95.7 57.601 99.05 54.401 A 10.041 10.041 0 0 0 101.424 50.759 Q 102.04 49.196 102.337 47.248 A 25.012 25.012 0 0 0 102.6 44.201 Q 102.8 39.801 102.8 35.901 Q 102.8 32.001 102.6 27.801 A 25.58 25.58 0 0 0 102.282 24.648 Q 102.015 23.059 101.541 21.737 A 12.351 12.351 0 0 0 100.85 20.151 A 10.786 10.786 0 0 0 98.879 17.454 A 9.397 9.397 0 0 0 96.6 15.801 A 12.409 12.409 0 0 0 92.51 14.537 A 15.804 15.804 0 0 0 90.4 14.401 Q 87 14.401 84.3 15.801 Q 81.6 17.201 80 20.151 A 13.194 13.194 0 0 0 78.876 23.038 Q 78.507 24.416 78.331 26.037 A 27.043 27.043 0 0 0 78.2 27.801 Q 78.1 32.001 78.1 35.901 Q 78.1 39.801 78.2 44.201 A 24.271 24.271 0 0 0 78.638 47.976 Q 79.482 52.138 81.85 54.401 A 11.434 11.434 0 0 0 88.667 57.506 A 15.475 15.475 0 0 0 90.4 57.601 Z" vector-effect="non-scaling-stroke"/></g></svg>