<svg width="554.501" height="72.001" viewBox="0 0 554.501 72.001" xmlns="http://www.w3.org/2000/svg"><defs><linearGradient id="gradient" x1="0%" y1="0%" x2="100%" y2="0%"><stop offset="0%" stop-color="#AA5CC3" /><stop offset="100%" stop-color="#00A4DC" /></linearGradient></defs><g id="svgGroup" stroke-linecap="round" fill-rule="nonzero" font-size="9pt" stroke="url(#gradient)" stroke-width="0.25mm" fill="url(#gradient)" style="stroke:url(#gradient);stroke-width:0.25mm;fill:url(#gradient)">><path d="M 552 23 L 537.4 23 Q 536.3 23 535.75 22.65 A 2.551 2.551 0 0 1 535.179 22.146 Q 534.975 21.907 534.8 21.6 A 12.448 12.448 0 0 0 534.001 20.161 Q 533.467 19.327 532.75 18.45 A 9.794 9.794 0 0 0 531.033 16.824 Q 530.152 16.163 529.05 15.6 A 9.775 9.775 0 0 0 526.901 14.824 Q 525.824 14.562 524.553 14.462 A 21.112 21.112 0 0 0 522.9 14.4 Q 517.776 14.4 514.578 16.912 A 10.489 10.489 0 0 0 514 17.4 Q 510.7 20.4 510.4 27 Q 510.1 35.6 510.4 44.4 Q 510.7 51.4 514.1 54.5 A 11.512 11.512 0 0 0 519.391 57.198 A 17.03 17.03 0 0 0 523.2 57.6 A 18.139 18.139 0 0 0 526.92 57.234 A 14.717 14.717 0 0 0 529.85 56.3 Q 532.8 55 534.5 52.25 A 10.67 10.67 0 0 0 535.768 49.14 Q 536.2 47.367 536.2 45.2 L 536.2 43.3 L 526.8 43.3 A 2.633 2.633 0 0 1 525.914 43.157 A 2.281 2.281 0 0 1 525 42.55 A 2.581 2.581 0 0 1 524.303 40.837 A 3.357 3.357 0 0 1 524.3 40.7 L 524.3 33.3 A 2.852 2.852 0 0 1 524.464 32.317 A 2.53 2.53 0 0 1 525 31.45 A 2.325 2.325 0 0 1 526.664 30.703 A 3.12 3.12 0 0 1 526.8 30.7 L 552 30.7 A 2.633 2.633 0 0 1 552.886 30.844 A 2.281 2.281 0 0 1 553.8 31.45 A 2.581 2.581 0 0 1 554.497 33.164 A 3.357 3.357 0 0 1 554.5 33.3 L 554.5 44.7 Q 554.5 53.3 550.6 59.4 A 24.558 24.558 0 0 1 541.287 67.893 A 30.057 30.057 0 0 1 539.55 68.75 Q 532.4 72 522.9 72 Q 513.4 72 506.55 68.85 A 24.657 24.657 0 0 1 498.819 63.388 A 23.342 23.342 0 0 1 495.95 59.65 A 26.629 26.629 0 0 1 492.706 51.651 A 36.886 36.886 0 0 1 491.8 44.9 Q 491.7 40.6 491.7 35.75 Q 491.7 30.9 491.8 26.5 A 34.434 34.434 0 0 1 492.801 19.561 A 25.246 25.246 0 0 1 496 12.1 A 23.799 23.799 0 0 1 505.434 3.706 A 29.027 29.027 0 0 1 506.7 3.1 Q 513.6 0 522.9 0 A 51.932 51.932 0 0 1 529.558 0.407 A 37.792 37.792 0 0 1 536.2 1.85 Q 542 3.7 545.95 6.8 Q 549.9 9.9 552 13.6 A 18.137 18.137 0 0 1 553.529 17.047 A 13.94 13.94 0 0 1 554.2 20.9 A 2.038 2.038 0 0 1 554.018 21.769 A 2.007 2.007 0 0 1 553.55 22.4 Q 552.9 23 552 23 Z M 60.3 23 L 45.7 23 Q 44.6 23 44.05 22.65 A 2.551 2.551 0 0 1 43.479 22.146 Q 43.275 21.907 43.1 21.6 A 12.448 12.448 0 0 0 42.301 20.161 Q 41.767 19.327 41.05 18.45 A 9.794 9.794 0 0 0 39.333 16.824 Q 38.452 16.163 37.35 15.6 A 9.775 9.775 0 0 0 35.201 14.824 Q 34.124 14.562 32.853 14.462 A 21.112 21.112 0 0 0 31.2 14.4 Q 26.076 14.4 22.878 16.912 A 10.489 10.489 0 0 0 22.3 17.4 Q 19 20.4 18.7 27 Q 18.4 35.6 18.7 44.4 Q 19 51.4 22.4 54.5 A 11.512 11.512 0 0 0 27.691 57.198 A 17.03 17.03 0 0 0 31.5 57.6 A 18.139 18.139 0 0 0 35.22 57.234 A 14.717 14.717 0 0 0 38.15 56.3 Q 41.1 55 42.8 52.25 A 10.67 10.67 0 0 0 44.068 49.14 Q 44.5 47.367 44.5 45.2 L 44.5 43.3 L 35.1 43.3 A 2.633 2.633 0 0 1 34.214 43.157 A 2.281 2.281 0 0 1 33.3 42.55 A 2.581 2.581 0 0 1 32.603 40.837 A 3.357 3.357 0 0 1 32.6 40.7 L 32.6 33.3 A 2.852 2.852 0 0 1 32.764 32.317 A 2.53 2.53 0 0 1 33.3 31.45 A 2.325 2.325 0 0 1 34.964 30.703 A 3.12 3.12 0 0 1 35.1 30.7 L 60.3 30.7 A 2.633 2.633 0 0 1 61.186 30.844 A 2.281 2.281 0 0 1 62.1 31.45 A 2.581 2.581 0 0 1 62.797 33.164 A 3.357 3.357 0 0 1 62.8 33.3 L 62.8 44.7 Q 62.8 53.3 58.9 59.4 A 24.558 24.558 0 0 1 49.587 67.893 A 30.057 30.057 0 0 1 47.85 68.75 Q 40.7 72 31.2 72 Q 21.7 72 14.85 68.85 A 24.657 24.657 0 0 1 7.119 63.388 A 23.342 23.342 0 0 1 4.25 59.65 A 26.629 26.629 0 0 1 1.006 51.651 A 36.886 36.886 0 0 1 0.1 44.9 Q 0 40.6 0 35.75 Q 0 30.9 0.1 26.5 A 34.434 34.434 0 0 1 1.101 19.561 A 25.246 25.246 0 0 1 4.3 12.1 A 23.799 23.799 0 0 1 13.734 3.706 A 29.027 29.027 0 0 1 15 3.1 Q 21.9 0 31.2 0 A 51.932 51.932 0 0 1 37.858 0.407 A 37.792 37.792 0 0 1 44.5 1.85 Q 50.3 3.7 54.25 6.8 Q 58.2 9.9 60.3 13.6 A 18.137 18.137 0 0 1 61.829 17.047 A 13.94 13.94 0 0 1 62.5 20.9 A 2.038 2.038 0 0 1 62.318 21.769 A 2.007 2.007 0 0 1 61.85 22.4 Q 61.2 23 60.3 23 Z M 436.6 71 L 424.6 71 A 2.633 2.633 0 0 1 423.714 70.857 A 2.281 2.281 0 0 1 422.8 70.25 Q 422.1 69.5 422.1 68.5 L 422.1 3.5 A 2.822 2.822 0 0 1 422.225 2.644 A 2.299 2.299 0 0 1 422.8 1.7 A 2.363 2.363 0 0 1 424.294 1.015 A 3.207 3.207 0 0 1 424.6 1 L 435.2 1 Q 436.894 1 437.645 1.746 A 1.874 1.874 0 0 1 437.65 1.75 Q 438.204 2.304 438.458 2.667 A 1.895 1.895 0 0 1 438.6 2.9 L 463 41.3 L 463 3.5 A 2.822 2.822 0 0 1 463.125 2.644 A 2.299 2.299 0 0 1 463.7 1.7 A 2.363 2.363 0 0 1 465.194 1.015 A 3.207 3.207 0 0 1 465.5 1 L 477.5 1 A 2.822 2.822 0 0 1 478.357 1.125 A 2.299 2.299 0 0 1 479.3 1.7 A 2.363 2.363 0 0 1 479.986 3.195 A 3.207 3.207 0 0 1 480 3.5 L 480 68.4 A 2.852 2.852 0 0 1 479.836 69.384 A 2.53 2.53 0 0 1 479.3 70.25 A 2.325 2.325 0 0 1 477.636 70.998 A 3.12 3.12 0 0 1 477.5 71 L 466.8 71 A 5.068 5.068 0 0 1 465.935 70.932 Q 465.473 70.852 465.11 70.677 A 2.194 2.194 0 0 1 464.45 70.2 A 32.179 32.179 0 0 1 464.148 69.874 Q 463.656 69.335 463.5 69.1 L 439.1 32.1 L 439.1 68.5 A 2.484 2.484 0 0 1 438.4 70.25 A 2.325 2.325 0 0 1 436.736 70.998 A 3.12 3.12 0 0 1 436.6 71 Z M 145.3 44.3 L 145.3 3.5 A 2.822 2.822 0 0 1 145.425 2.644 A 2.299 2.299 0 0 1 146 1.7 A 2.363 2.363 0 0 1 147.494 1.015 A 3.207 3.207 0 0 1 147.8 1 L 160.7 1 A 2.852 2.852 0 0 1 161.684 1.165 A 2.53 2.53 0 0 1 162.55 1.7 A 2.325 2.325 0 0 1 163.297 3.365 A 3.12 3.12 0 0 1 163.3 3.5 L 163.3 44.2 A 21.699 21.699 0 0 0 163.588 47.86 Q 164.245 51.691 166.4 53.95 A 10.071 10.071 0 0 0 171.291 56.743 Q 172.896 57.158 174.802 57.196 A 19.52 19.52 0 0 0 175.2 57.2 A 15.565 15.565 0 0 0 178.761 56.816 A 10.339 10.339 0 0 0 183.95 53.95 A 10.196 10.196 0 0 0 186.262 50.04 Q 186.799 48.446 186.992 46.498 A 23.346 23.346 0 0 0 187.1 44.2 L 187.1 3.5 A 2.633 2.633 0 0 1 187.244 2.615 A 2.281 2.281 0 0 1 187.85 1.7 Q 188.6 1 189.6 1 L 202.6 1 Q 203.6 1 204.35 1.7 A 2.325 2.325 0 0 1 205.097 3.365 A 3.12 3.12 0 0 1 205.1 3.5 L 205.1 44.3 A 40.126 40.126 0 0 1 204.58 50.954 Q 203.713 56.107 201.4 59.95 Q 197.7 66.1 191 69.05 A 33.722 33.722 0 0 1 182.86 71.415 A 46.522 46.522 0 0 1 175.3 72 A 47.595 47.595 0 0 1 167.787 71.436 Q 163.531 70.755 159.928 69.254 A 29.994 29.994 0 0 1 159.45 69.05 Q 152.7 66.1 149 59.95 Q 145.764 54.572 145.358 46.632 A 45.661 45.661 0 0 1 145.3 44.3 Z M 296.8 71 L 283.9 71 A 2.633 2.633 0 0 1 283.014 70.857 A 2.281 2.281 0 0 1 282.1 70.25 Q 281.4 69.5 281.4 68.5 L 281.4 3.5 A 2.822 2.822 0 0 1 281.525 2.644 A 2.299 2.299 0 0 1 282.1 1.7 A 2.363 2.363 0 0 1 283.594 1.015 A 3.207 3.207 0 0 1 283.9 1 L 311.1 1 A 45.848 45.848 0 0 1 319.202 1.672 Q 323.702 2.481 327.284 4.264 A 23.199 23.199 0 0 1 331.5 6.95 A 19.369 19.369 0 0 1 338.64 19.887 A 28.391 28.391 0 0 1 338.9 23.8 Q 338.9 30.9 335.5 35.8 Q 332.1 40.7 326.5 43.2 L 340.2 67.8 A 3.34 3.34 0 0 1 340.383 68.236 Q 340.463 68.478 340.489 68.701 A 1.776 1.776 0 0 1 340.5 68.9 A 1.901 1.901 0 0 1 340.103 70.059 A 2.648 2.648 0 0 1 339.85 70.35 Q 339.2 71 338.4 71 L 325.1 71 Q 323.879 71 323.07 70.608 A 2.635 2.635 0 0 1 322.3 70.05 A 10.89 10.89 0 0 1 321.718 69.387 Q 321.458 69.064 321.264 68.761 A 4.981 4.981 0 0 1 321 68.3 L 309.6 46.3 L 299.4 46.3 L 299.4 68.5 A 2.385 2.385 0 0 1 298.698 70.202 A 3.132 3.132 0 0 1 298.65 70.25 A 2.508 2.508 0 0 1 296.834 71 A 3.201 3.201 0 0 1 296.8 71 Z M 299.4 14.9 L 299.4 32.1 L 310.9 32.1 A 15.3 15.3 0 0 0 313.546 31.887 Q 316.316 31.4 317.95 29.8 A 7.651 7.651 0 0 0 320.124 25.614 A 11.027 11.027 0 0 0 320.3 23.6 Q 320.3 19.7 318.05 17.3 A 6.824 6.824 0 0 0 315.358 15.578 Q 313.503 14.9 310.9 14.9 L 299.4 14.9 Z M 358.8 71 L 346.5 71 A 1.901 1.901 0 0 1 345.342 70.604 A 2.648 2.648 0 0 1 345.05 70.35 Q 344.4 69.7 344.4 68.9 Q 344.4 68.4 344.5 68 L 368 3.8 A 3.854 3.854 0 0 1 368.865 2.234 A 4.852 4.852 0 0 1 369.25 1.85 A 3.141 3.141 0 0 1 370.492 1.181 Q 370.96 1.046 371.518 1.012 A 6.303 6.303 0 0 1 371.9 1 L 386.7 1 A 5.47 5.47 0 0 1 387.758 1.096 Q 388.719 1.286 389.35 1.85 A 4.432 4.432 0 0 1 390.157 2.793 A 3.728 3.728 0 0 1 390.6 3.8 L 414 68 A 1.904 1.904 0 0 1 414.189 68.672 A 2.337 2.337 0 0 1 414.2 68.9 A 1.901 1.901 0 0 1 413.803 70.059 A 2.648 2.648 0 0 1 413.55 70.35 A 2.189 2.189 0 0 1 412.74 70.876 A 2.169 2.169 0 0 1 412 71 L 399.7 71 A 4.782 4.782 0 0 1 398.856 70.931 Q 398.393 70.848 398.029 70.665 A 2.223 2.223 0 0 1 397.45 70.25 A 6.426 6.426 0 0 1 397.053 69.818 Q 396.673 69.362 396.524 68.968 A 1.759 1.759 0 0 1 396.5 68.9 L 392.6 58.7 L 365.9 58.7 L 362.1 68.9 A 2.414 2.414 0 0 1 361.903 69.331 Q 361.659 69.758 361.2 70.25 Q 360.5 71 358.8 71 Z M 379.3 17.9 L 370 44.3 L 388.6 44.3 L 379.3 17.9 Z M 82.6 71 L 70.3 71 A 1.901 1.901 0 0 1 69.142 70.604 A 2.648 2.648 0 0 1 68.85 70.35 Q 68.2 69.7 68.2 68.9 Q 68.2 68.4 68.3 68 L 91.8 3.8 A 3.854 3.854 0 0 1 92.665 2.234 A 4.852 4.852 0 0 1 93.05 1.85 A 3.141 3.141 0 0 1 94.292 1.181 Q 94.76 1.046 95.318 1.012 A 6.303 6.303 0 0 1 95.7 1 L 110.5 1 A 5.47 5.47 0 0 1 111.558 1.096 Q 112.519 1.286 113.15 1.85 A 4.432 4.432 0 0 1 113.957 2.793 A 3.728 3.728 0 0 1 114.4 3.8 L 137.8 68 A 1.904 1.904 0 0 1 137.989 68.672 A 2.337 2.337 0 0 1 138 68.9 A 1.901 1.901 0 0 1 137.603 70.059 A 2.648 2.648 0 0 1 137.35 70.35 A 2.189 2.189 0 0 1 136.54 70.876 A 2.169 2.169 0 0 1 135.8 71 L 123.5 71 A 4.782 4.782 0 0 1 122.656 70.931 Q 122.193 70.848 121.829 70.665 A 2.223 2.223 0 0 1 121.25 70.25 A 6.426 6.426 0 0 1 120.853 69.818 Q 120.473 69.362 120.324 68.968 A 1.759 1.759 0 0 1 120.3 68.9 L 116.4 58.7 L 89.7 58.7 L 85.9 68.9 A 2.414 2.414 0 0 1 85.703 69.331 Q 85.459 69.758 85 70.25 Q 84.3 71 82.6 71 Z M 103.1 17.9 L 93.8 44.3 L 112.4 44.3 L 103.1 17.9 Z M 249.5 71 L 236.3 71 A 2.633 2.633 0 0 1 235.414 70.857 A 2.281 2.281 0 0 1 234.5 70.25 Q 233.8 69.5 233.8 68.5 L 233.8 16.7 L 216 16.7 A 2.633 2.633 0 0 1 215.114 16.557 A 2.281 2.281 0 0 1 214.2 15.95 Q 213.5 15.2 213.5 14.2 L 213.5 3.5 A 2.822 2.822 0 0 1 213.625 2.644 A 2.299 2.299 0 0 1 214.2 1.7 A 2.363 2.363 0 0 1 215.694 1.015 A 3.207 3.207 0 0 1 216 1 L 269.8 1 A 2.822 2.822 0 0 1 270.657 1.125 A 2.299 2.299 0 0 1 271.6 1.7 A 2.363 2.363 0 0 1 272.286 3.195 A 3.207 3.207 0 0 1 272.3 3.5 L 272.3 14.2 Q 272.3 15.2 271.6 15.95 A 2.325 2.325 0 0 1 269.936 16.698 A 3.12 3.12 0 0 1 269.8 16.7 L 252 16.7 L 252 68.5 Q 252 69.5 251.3 70.25 A 2.325 2.325 0 0 1 249.636 70.998 A 3.12 3.12 0 0 1 249.5 71 Z" vector-effect="non-scaling-stroke"/></g></svg>