<svg width="678.401" height="72.001" viewBox="0 0 678.401 72.001" xmlns="http://www.w3.org/2000/svg"><defs><linearGradient id="gradient" x1="0%" y1="0%" x2="100%" y2="0%"><stop offset="0%" stop-color="#AA5CC3" /><stop offset="100%" stop-color="#00A4DC" /></linearGradient></defs><g id="svgGroup" stroke-linecap="round" fill-rule="nonzero" font-size="9pt" stroke="url(#gradient)" stroke-width="0.25mm" fill="url(#gradient)" style="stroke:url(#gradient);stroke-width:0.25mm;fill:url(#gradient)"><path d="M 160.2 71.001 L 148.2 71.001 A 2.385 2.385 0 0 1 146.499 70.298 A 3.132 3.132 0 0 1 146.45 70.251 A 2.614 2.614 0 0 1 145.906 69.479 A 2.349 2.349 0 0 1 145.7 68.501 L 145.7 3.501 A 2.633 2.633 0 0 1 145.844 2.615 A 2.281 2.281 0 0 1 146.45 1.701 A 2.484 2.484 0 0 1 148.2 1.001 L 159 1.001 A 5.382 5.382 0 0 1 159.925 1.074 Q 160.936 1.251 161.5 1.851 Q 162.116 2.504 162.376 2.951 A 1.91 1.91 0 0 1 162.5 3.201 L 180.1 34.701 L 197.7 3.201 A 4.745 4.745 0 0 1 197.904 2.892 Q 198.139 2.562 198.51 2.127 A 21.362 21.362 0 0 1 198.75 1.851 Q 199.335 1.187 200.498 1.042 A 5.651 5.651 0 0 1 201.2 1.001 L 211.9 1.001 A 2.852 2.852 0 0 1 212.884 1.165 A 2.53 2.53 0 0 1 213.75 1.701 A 2.325 2.325 0 0 1 214.497 3.365 A 3.12 3.12 0 0 1 214.5 3.501 L 214.5 68.501 A 2.385 2.385 0 0 1 213.798 70.202 A 3.132 3.132 0 0 1 213.75 70.251 A 2.508 2.508 0 0 1 211.934 71 A 3.201 3.201 0 0 1 211.9 71.001 L 200 71.001 A 2.659 2.659 0 0 1 198.959 70.801 A 2.52 2.52 0 0 1 198.15 70.251 A 2.614 2.614 0 0 1 197.606 69.479 A 2.349 2.349 0 0 1 197.4 68.501 L 197.4 31.001 L 186.2 51.901 Q 185.7 52.801 184.9 53.501 Q 184.179 54.131 182.972 54.194 A 5.256 5.256 0 0 1 182.7 54.201 L 177.5 54.201 A 4.515 4.515 0 0 1 176.609 54.118 Q 176.082 54.012 175.673 53.77 A 2.482 2.482 0 0 1 175.3 53.501 Q 174.5 52.801 174 51.901 L 162.7 31.001 L 162.7 68.501 A 2.484 2.484 0 0 1 162 70.251 A 2.325 2.325 0 0 1 160.336 70.998 A 3.12 3.12 0 0 1 160.2 71.001 Z M 278.5 71.001 L 231 71.001 A 2.633 2.633 0 0 1 230.114 70.857 A 2.281 2.281 0 0 1 229.2 70.251 Q 228.5 69.501 228.5 68.501 L 228.5 3.501 A 2.822 2.822 0 0 1 228.625 2.644 A 2.299 2.299 0 0 1 229.2 1.701 A 2.363 2.363 0 0 1 230.695 1.015 A 3.207 3.207 0 0 1 231 1.001 L 277.7 1.001 A 2.822 2.822 0 0 1 278.557 1.125 A 2.299 2.299 0 0 1 279.5 1.701 A 2.363 2.363 0 0 1 280.186 3.195 A 3.207 3.207 0 0 1 280.2 3.501 L 280.2 12.901 A 2.822 2.822 0 0 1 280.076 13.757 A 2.299 2.299 0 0 1 279.5 14.701 A 2.363 2.363 0 0 1 278.006 15.386 A 3.207 3.207 0 0 1 277.7 15.401 L 245.8 15.401 L 245.8 28.901 L 275.5 28.901 A 2.633 2.633 0 0 1 276.386 29.044 A 2.281 2.281 0 0 1 277.3 29.651 A 2.581 2.581 0 0 1 277.997 31.364 A 3.357 3.357 0 0 1 278 31.501 L 278 40.201 Q 278 41.201 277.3 41.951 A 2.325 2.325 0 0 1 275.636 42.698 A 3.12 3.12 0 0 1 275.5 42.701 L 245.8 42.701 L 245.8 56.601 L 278.5 56.601 A 2.822 2.822 0 0 1 279.357 56.725 A 2.299 2.299 0 0 1 280.3 57.301 A 2.363 2.363 0 0 1 280.986 58.795 A 3.207 3.207 0 0 1 281 59.101 L 281 68.501 Q 281 69.501 280.3 70.251 A 2.325 2.325 0 0 1 278.636 70.998 A 3.12 3.12 0 0 1 278.5 71.001 Z M 537 71.001 L 489.5 71.001 A 2.633 2.633 0 0 1 488.614 70.857 A 2.281 2.281 0 0 1 487.7 70.251 Q 487 69.501 487 68.501 L 487 3.501 A 2.822 2.822 0 0 1 487.125 2.644 A 2.299 2.299 0 0 1 487.7 1.701 A 2.363 2.363 0 0 1 489.195 1.015 A 3.207 3.207 0 0 1 489.5 1.001 L 536.2 1.001 A 2.822 2.822 0 0 1 537.057 1.125 A 2.299 2.299 0 0 1 538 1.701 A 2.363 2.363 0 0 1 538.686 3.195 A 3.207 3.207 0 0 1 538.7 3.501 L 538.7 12.901 A 2.822 2.822 0 0 1 538.576 13.757 A 2.299 2.299 0 0 1 538 14.701 A 2.363 2.363 0 0 1 536.506 15.386 A 3.207 3.207 0 0 1 536.2 15.401 L 504.3 15.401 L 504.3 28.901 L 534 28.901 A 2.633 2.633 0 0 1 534.886 29.044 A 2.281 2.281 0 0 1 535.8 29.651 A 2.581 2.581 0 0 1 536.497 31.364 A 3.357 3.357 0 0 1 536.5 31.501 L 536.5 40.201 Q 536.5 41.201 535.8 41.951 A 2.325 2.325 0 0 1 534.136 42.698 A 3.12 3.12 0 0 1 534 42.701 L 504.3 42.701 L 504.3 56.601 L 537 56.601 A 2.822 2.822 0 0 1 537.857 56.725 A 2.299 2.299 0 0 1 538.8 57.301 A 2.363 2.363 0 0 1 539.486 58.795 A 3.207 3.207 0 0 1 539.5 59.101 L 539.5 68.501 Q 539.5 69.501 538.8 70.251 A 2.325 2.325 0 0 1 537.136 70.998 A 3.12 3.12 0 0 1 537 71.001 Z M 620.2 49.801 L 632.8 49.801 Q 633.701 49.801 634.333 50.008 A 2.524 2.524 0 0 1 634.95 50.301 A 5.305 5.305 0 0 1 635.991 51.219 A 6.314 6.314 0 0 1 636.3 51.601 A 10.598 10.598 0 0 0 637.47 53.335 A 13.781 13.781 0 0 0 638.55 54.501 A 8.892 8.892 0 0 0 640.328 55.815 Q 641.256 56.345 642.4 56.751 Q 644.8 57.601 648.2 57.601 A 30.232 30.232 0 0 0 651.237 57.458 Q 654.502 57.127 656.551 56.029 A 8.259 8.259 0 0 0 656.95 55.801 A 7.085 7.085 0 0 0 658.568 54.479 A 5.2 5.2 0 0 0 659.9 50.901 A 5.354 5.354 0 0 0 659.626 49.15 A 4.504 4.504 0 0 0 658.3 47.201 Q 656.7 45.801 653.15 44.651 A 53.889 53.889 0 0 0 650.702 43.927 Q 647.851 43.151 643.96 42.354 A 170.553 170.553 0 0 0 643.7 42.301 A 73.122 73.122 0 0 1 637.584 40.75 Q 633.801 39.605 630.75 38.151 A 23.193 23.193 0 0 1 626.36 35.46 A 17.697 17.697 0 0 1 622.6 31.451 Q 619.805 27.307 619.8 21.12 A 28.484 28.484 0 0 1 619.8 21.101 Q 619.8 15.001 623.25 10.201 A 21.398 21.398 0 0 1 629.63 4.385 A 27.383 27.383 0 0 1 632.9 2.701 A 31.122 31.122 0 0 1 640.021 0.614 Q 643.274 0.048 646.97 0.004 A 52.715 52.715 0 0 1 647.6 0.001 A 44.916 44.916 0 0 1 653.611 0.383 Q 656.713 0.802 659.394 1.681 A 27.777 27.777 0 0 1 659.75 1.801 Q 665 3.601 668.6 6.601 A 26.831 26.831 0 0 1 671.591 9.49 A 19.647 19.647 0 0 1 674.05 12.951 A 16.934 16.934 0 0 1 675.4 16.058 A 12.793 12.793 0 0 1 676 19.501 A 2.174 2.174 0 0 1 675.5 20.889 A 2.751 2.751 0 0 1 675.45 20.951 A 1.792 1.792 0 0 1 674.344 21.565 A 2.644 2.644 0 0 1 673.9 21.601 L 660.7 21.601 A 5.091 5.091 0 0 1 659.795 21.524 A 3.672 3.672 0 0 1 658.8 21.201 A 3.283 3.283 0 0 1 657.921 20.549 A 4.476 4.476 0 0 1 657.4 19.901 Q 656.8 17.701 654.25 16.051 Q 652.049 14.626 648.694 14.431 A 18.857 18.857 0 0 0 647.6 14.401 Q 644.713 14.401 642.665 15.068 A 8.482 8.482 0 0 0 640.75 15.951 A 5.015 5.015 0 0 0 638.386 19.559 A 7.274 7.274 0 0 0 638.3 20.701 Q 638.3 22.701 639.65 24.201 A 6.505 6.505 0 0 0 640.791 25.184 Q 642.083 26.079 644.15 26.801 A 44.168 44.168 0 0 0 646.348 27.498 Q 648.842 28.224 652.303 28.991 A 152.784 152.784 0 0 0 652.8 29.101 A 96.05 96.05 0 0 1 658.643 30.37 Q 661.477 31.085 663.86 31.909 A 41.665 41.665 0 0 1 667.5 33.351 A 24.19 24.19 0 0 1 671.425 35.572 Q 673.669 37.154 675.163 39.119 A 14.44 14.44 0 0 1 675.75 39.951 Q 678.291 43.834 678.396 49.604 A 27.51 27.51 0 0 1 678.4 50.101 A 19.803 19.803 0 0 1 677.365 56.602 A 17.421 17.421 0 0 1 674.5 61.801 Q 670.6 66.701 663.85 69.351 A 37.116 37.116 0 0 1 655.824 71.456 A 50.916 50.916 0 0 1 648.2 72.001 A 57.925 57.925 0 0 1 641.212 71.604 Q 637.705 71.177 634.747 70.29 A 28.764 28.764 0 0 1 631.6 69.151 A 29.907 29.907 0 0 1 626.766 66.546 Q 623.619 64.432 621.6 61.701 Q 618.2 57.101 618 51.901 A 1.901 1.901 0 0 1 618.397 50.742 A 2.648 2.648 0 0 1 618.65 50.451 A 2.189 2.189 0 0 1 619.46 49.925 A 2.169 2.169 0 0 1 620.2 49.801 Z M 15.4 71.001 L 2.5 71.001 A 2.822 2.822 0 0 1 1.643 70.876 A 2.299 2.299 0 0 1 0.7 70.301 A 2.363 2.363 0 0 1 0.014 68.806 A 3.207 3.207 0 0 1 0 68.501 L 0 3.501 A 2.822 2.822 0 0 1 0.125 2.644 A 2.299 2.299 0 0 1 0.7 1.701 A 2.363 2.363 0 0 1 2.195 1.015 A 3.207 3.207 0 0 1 2.5 1.001 L 15.4 1.001 A 2.852 2.852 0 0 1 16.384 1.165 A 2.53 2.53 0 0 1 17.25 1.701 A 2.325 2.325 0 0 1 17.997 3.365 A 3.12 3.12 0 0 1 18 3.501 L 18 27.601 L 42.6 27.601 L 42.6 3.501 A 2.822 2.822 0 0 1 42.725 2.644 A 2.299 2.299 0 0 1 43.3 1.701 A 2.363 2.363 0 0 1 44.795 1.015 A 3.207 3.207 0 0 1 45.1 1.001 L 58 1.001 A 2.822 2.822 0 0 1 58.857 1.125 A 2.299 2.299 0 0 1 59.8 1.701 A 2.363 2.363 0 0 1 60.486 3.195 A 3.207 3.207 0 0 1 60.5 3.501 L 60.5 68.501 Q 60.5 69.501 59.8 70.251 A 2.325 2.325 0 0 1 58.136 70.998 A 3.12 3.12 0 0 1 58 71.001 L 45.1 71.001 A 2.633 2.633 0 0 1 44.214 70.857 A 2.281 2.281 0 0 1 43.3 70.251 A 2.484 2.484 0 0 1 42.6 68.501 L 42.6 43.601 L 18 43.601 L 18 68.501 A 2.385 2.385 0 0 1 17.298 70.202 A 3.132 3.132 0 0 1 17.25 70.251 A 2.508 2.508 0 0 1 15.434 71 A 3.201 3.201 0 0 1 15.4 71.001 Z M 349 71.001 L 333.7 71.001 A 5.193 5.193 0 0 1 332.571 70.885 Q 331.642 70.678 331 70.101 A 5 5 0 0 1 329.873 68.652 A 4.713 4.713 0 0 1 329.6 68.001 L 309.2 4.001 Q 309.038 3.596 309.007 3.256 A 1.723 1.723 0 0 1 309 3.101 A 1.901 1.901 0 0 1 309.397 1.942 A 2.648 2.648 0 0 1 309.65 1.651 A 2.189 2.189 0 0 1 310.46 1.125 A 2.169 2.169 0 0 1 311.2 1.001 L 323.6 1.001 A 4.582 4.582 0 0 1 324.617 1.107 Q 325.353 1.274 325.883 1.705 A 2.822 2.822 0 0 1 326.1 1.901 Q 326.688 2.489 326.978 3.034 A 2.515 2.515 0 0 1 327.2 3.601 L 341.4 49.801 L 355.5 3.601 Q 355.732 2.983 356.291 2.306 A 8.161 8.161 0 0 1 356.65 1.901 Q 357.453 1.05 358.925 1.003 A 5.472 5.472 0 0 1 359.1 1.001 L 371.6 1.001 A 1.901 1.901 0 0 1 372.759 1.397 A 2.648 2.648 0 0 1 373.05 1.651 Q 373.7 2.301 373.7 3.101 A 1.91 1.91 0 0 1 373.662 3.47 Q 373.613 3.719 373.5 4.001 L 353.1 68.001 Q 352.8 69.201 351.8 70.101 A 3.299 3.299 0 0 1 350.49 70.809 Q 349.995 70.953 349.404 70.989 A 6.67 6.67 0 0 1 349 71.001 Z M 444.4 71.001 L 417.9 71.001 A 2.633 2.633 0 0 1 417.014 70.857 A 2.281 2.281 0 0 1 416.1 70.251 Q 415.4 69.501 415.4 68.501 L 415.4 3.501 A 2.822 2.822 0 0 1 415.525 2.644 A 2.299 2.299 0 0 1 416.1 1.701 A 2.363 2.363 0 0 1 417.595 1.015 A 3.207 3.207 0 0 1 417.9 1.001 L 443.9 1.001 Q 453.7 1.001 460.6 4.151 Q 467.5 7.301 471.2 13.351 A 25.871 25.871 0 0 1 474.23 20.82 Q 474.999 23.998 475.175 27.674 A 44.659 44.659 0 0 1 475.2 28.301 A 447.003 447.003 0 0 1 475.261 31.446 Q 475.3 33.938 475.3 36.001 Q 475.3 38.836 475.226 42.411 A 458.889 458.889 0 0 1 475.2 43.601 A 43.936 43.936 0 0 1 474.457 50.126 Q 473.469 55.188 471.25 59.001 Q 467.7 65.101 460.95 68.051 Q 455.1 70.607 446.959 70.948 A 61.182 61.182 0 0 1 444.4 71.001 Z M 433.4 15.401 L 433.4 56.601 L 443.9 56.601 Q 447.276 56.601 449.759 55.768 A 11.708 11.708 0 0 0 451.05 55.251 Q 453.9 53.901 455.35 51.001 A 12.838 12.838 0 0 0 456.305 48.347 Q 456.841 46.191 456.9 43.401 A 134.029 134.029 0 0 0 457.055 40.814 Q 457.115 39.596 457.143 38.509 A 79.324 79.324 0 0 0 457.15 38.201 Q 457.2 35.901 457.15 33.601 Q 457.1 31.301 456.9 28.501 Q 456.773 24.172 455.369 21.322 A 9.554 9.554 0 0 0 453.35 18.551 Q 450.626 15.989 445.751 15.51 A 24.096 24.096 0 0 0 443.4 15.401 L 433.4 15.401 Z M 95.51 71.426 Q 91.104 70.717 87.4 69.131 A 29.885 29.885 0 0 1 87.1 69.001 Q 80.3 66.001 76.5 59.951 A 25.815 25.815 0 0 1 73.422 52.662 Q 72.488 49.066 72.3 44.801 Q 72.2 40.501 72.2 36.151 Q 72.2 31.801 72.3 27.501 A 37.862 37.862 0 0 1 73.252 20.414 Q 74.29 16.049 76.41 12.577 A 23.79 23.79 0 0 1 76.55 12.351 Q 80.4 6.201 87.25 3.101 A 34.146 34.146 0 0 1 96.142 0.512 A 45.423 45.423 0 0 1 103.1 0.001 A 45.143 45.143 0 0 1 111.001 0.659 A 33.216 33.216 0 0 1 119 3.101 Q 125.8 6.201 129.7 12.351 A 25.812 25.812 0 0 1 132.949 20.171 Q 133.769 23.563 133.9 27.501 Q 134.1 31.801 134.1 36.151 Q 134.1 40.501 133.9 44.801 Q 133.6 53.901 129.75 59.951 Q 125.9 66.001 119.1 69.001 Q 112.3 72.001 103.1 72.001 A 47.755 47.755 0 0 1 95.51 71.426 Z M 103.1 57.601 Q 108.4 57.601 111.75 54.401 A 10.041 10.041 0 0 0 114.124 50.759 Q 114.74 49.196 115.037 47.248 A 25.012 25.012 0 0 0 115.3 44.201 Q 115.5 39.801 115.5 35.901 Q 115.5 32.001 115.3 27.801 A 25.58 25.58 0 0 0 114.982 24.648 Q 114.715 23.059 114.241 21.737 A 12.351 12.351 0 0 0 113.55 20.151 A 10.786 10.786 0 0 0 111.579 17.454 A 9.397 9.397 0 0 0 109.3 15.801 A 12.409 12.409 0 0 0 105.21 14.537 A 15.804 15.804 0 0 0 103.1 14.401 Q 99.7 14.401 97 15.801 Q 94.3 17.201 92.7 20.151 A 13.194 13.194 0 0 0 91.576 23.038 Q 91.207 24.416 91.031 26.037 A 27.043 27.043 0 0 0 90.9 27.801 Q 90.8 32.001 90.8 35.901 Q 90.8 39.801 90.9 44.201 A 24.271 24.271 0 0 0 91.338 47.976 Q 92.182 52.138 94.55 54.401 A 11.434 11.434 0 0 0 101.367 57.506 A 15.475 15.475 0 0 0 103.1 57.601 Z M 571.91 71.426 Q 567.504 70.717 563.8 69.131 A 29.885 29.885 0 0 1 563.5 69.001 Q 556.7 66.001 552.9 59.951 A 25.815 25.815 0 0 1 549.822 52.662 Q 548.888 49.066 548.7 44.801 Q 548.6 40.501 548.6 36.151 Q 548.6 31.801 548.7 27.501 A 37.862 37.862 0 0 1 549.652 20.414 Q 550.69 16.049 552.81 12.577 A 23.79 23.79 0 0 1 552.95 12.351 Q 556.8 6.201 563.65 3.101 A 34.146 34.146 0 0 1 572.542 0.512 A 45.423 45.423 0 0 1 579.5 0.001 A 45.143 45.143 0 0 1 587.401 0.659 A 33.216 33.216 0 0 1 595.4 3.101 Q 602.2 6.201 606.1 12.351 A 25.812 25.812 0 0 1 609.349 20.171 Q 610.169 23.563 610.3 27.501 Q 610.5 31.801 610.5 36.151 Q 610.5 40.501 610.3 44.801 Q 610 53.901 606.15 59.951 Q 602.3 66.001 595.5 69.001 Q 588.7 72.001 579.5 72.001 A 47.755 47.755 0 0 1 571.91 71.426 Z M 579.5 57.601 Q 584.8 57.601 588.15 54.401 A 10.041 10.041 0 0 0 590.524 50.759 Q 591.14 49.196 591.437 47.248 A 25.012 25.012 0 0 0 591.7 44.201 Q 591.9 39.801 591.9 35.901 Q 591.9 32.001 591.7 27.801 A 25.58 25.58 0 0 0 591.382 24.648 Q 591.115 23.059 590.641 21.737 A 12.351 12.351 0 0 0 589.95 20.151 A 10.786 10.786 0 0 0 587.979 17.454 A 9.397 9.397 0 0 0 585.7 15.801 A 12.409 12.409 0 0 0 581.61 14.537 A 15.804 15.804 0 0 0 579.5 14.401 Q 576.1 14.401 573.4 15.801 Q 570.7 17.201 569.1 20.151 A 13.194 13.194 0 0 0 567.976 23.038 Q 567.607 24.416 567.431 26.037 A 27.043 27.043 0 0 0 567.3 27.801 Q 567.2 32.001 567.2 35.901 Q 567.2 39.801 567.3 44.201 A 24.271 24.271 0 0 0 567.738 47.976 Q 568.582 52.138 570.95 54.401 A 11.434 11.434 0 0 0 577.767 57.506 A 15.475 15.475 0 0 0 579.5 57.601 Z M 398.9 71.001 L 385.5 71.001 A 2.633 2.633 0 0 1 384.614 70.857 A 2.281 2.281 0 0 1 383.7 70.251 Q 383 69.501 383 68.501 L 383 3.501 A 2.822 2.822 0 0 1 383.125 2.644 A 2.299 2.299 0 0 1 383.7 1.701 A 2.363 2.363 0 0 1 385.195 1.015 A 3.207 3.207 0 0 1 385.5 1.001 L 398.9 1.001 A 2.852 2.852 0 0 1 399.884 1.165 A 2.53 2.53 0 0 1 400.75 1.701 A 2.325 2.325 0 0 1 401.497 3.365 A 3.12 3.12 0 0 1 401.5 3.501 L 401.5 68.501 A 2.385 2.385 0 0 1 400.798 70.202 A 3.132 3.132 0 0 1 400.75 70.251 A 2.508 2.508 0 0 1 398.934 71 A 3.201 3.201 0 0 1 398.9 71.001 Z" vector-effect="non-scaling-stroke"/></g></svg>