<svg width="369.6" height="70" viewBox="0 0 369.6 70" xmlns="http://www.w3.org/2000/svg"><defs><linearGradient id="gradient" x1="0%" y1="0%" x2="100%" y2="0%"><stop offset="0%" stop-color="#AA5CC3" /><stop offset="100%" stop-color="#00A4DC" /></linearGradient></defs><g id="svgGroup" stroke-linecap="round" fill-rule="nonzero" font-size="9pt" stroke="url(#gradient)" stroke-width="0.25mm" fill="url(#gradient)" style="stroke:url(#gradient);stroke-width:0.25mm;fill:url(#gradient)"><path d="M 211.4 70 L 163.9 70 A 2.633 2.633 0 0 1 163.014 69.857 A 2.281 2.281 0 0 1 162.1 69.25 Q 161.4 68.5 161.4 67.5 L 161.4 2.5 A 2.822 2.822 0 0 1 161.525 1.643 A 2.299 2.299 0 0 1 162.1 0.7 A 2.363 2.363 0 0 1 163.595 0.014 A 3.207 3.207 0 0 1 163.9 0 L 210.6 0 A 2.822 2.822 0 0 1 211.457 0.125 A 2.299 2.299 0 0 1 212.4 0.7 A 2.363 2.363 0 0 1 213.086 2.195 A 3.207 3.207 0 0 1 213.1 2.5 L 213.1 11.9 A 2.822 2.822 0 0 1 212.976 12.757 A 2.299 2.299 0 0 1 212.4 13.7 A 2.363 2.363 0 0 1 210.906 14.386 A 3.207 3.207 0 0 1 210.6 14.4 L 178.7 14.4 L 178.7 27.9 L 208.4 27.9 A 2.633 2.633 0 0 1 209.286 28.044 A 2.281 2.281 0 0 1 210.2 28.65 A 2.581 2.581 0 0 1 210.897 30.364 A 3.357 3.357 0 0 1 210.9 30.5 L 210.9 39.2 Q 210.9 40.2 210.2 40.95 A 2.325 2.325 0 0 1 208.536 41.697 A 3.12 3.12 0 0 1 208.4 41.7 L 178.7 41.7 L 178.7 55.6 L 211.4 55.6 A 2.822 2.822 0 0 1 212.257 55.725 A 2.299 2.299 0 0 1 213.2 56.3 A 2.363 2.363 0 0 1 213.886 57.795 A 3.207 3.207 0 0 1 213.9 58.1 L 213.9 67.5 Q 213.9 68.5 213.2 69.25 A 2.325 2.325 0 0 1 211.536 69.997 A 3.12 3.12 0 0 1 211.4 70 Z M 127.4 70 L 112.1 70 A 5.193 5.193 0 0 1 110.971 69.885 Q 110.042 69.678 109.4 69.1 A 5 5 0 0 1 108.273 67.651 A 4.713 4.713 0 0 1 108 67 L 87.6 3 Q 87.438 2.595 87.407 2.256 A 1.723 1.723 0 0 1 87.4 2.1 A 1.901 1.901 0 0 1 87.797 0.942 A 2.648 2.648 0 0 1 88.05 0.65 A 2.189 2.189 0 0 1 88.86 0.125 A 2.169 2.169 0 0 1 89.6 0 L 102 0 A 4.582 4.582 0 0 1 103.017 0.106 Q 103.753 0.274 104.283 0.704 A 2.822 2.822 0 0 1 104.5 0.9 Q 105.088 1.488 105.378 2.034 A 2.515 2.515 0 0 1 105.6 2.6 L 119.8 48.8 L 133.9 2.6 Q 134.132 1.983 134.691 1.305 A 8.161 8.161 0 0 1 135.05 0.9 Q 135.853 0.05 137.325 0.003 A 5.472 5.472 0 0 1 137.5 0 L 150 0 A 1.901 1.901 0 0 1 151.159 0.397 A 2.648 2.648 0 0 1 151.45 0.65 Q 152.1 1.3 152.1 2.1 A 1.91 1.91 0 0 1 152.062 2.469 Q 152.013 2.719 151.9 3 L 131.5 67 Q 131.2 68.2 130.2 69.1 A 3.299 3.299 0 0 1 128.89 69.809 Q 128.395 69.952 127.804 69.988 A 6.67 6.67 0 0 1 127.4 70 Z M 344.9 70 L 329.6 70 A 5.193 5.193 0 0 1 328.471 69.885 Q 327.542 69.678 326.9 69.1 A 5 5 0 0 1 325.773 67.651 A 4.713 4.713 0 0 1 325.5 67 L 305.1 3 Q 304.938 2.595 304.907 2.256 A 1.723 1.723 0 0 1 304.9 2.1 A 1.901 1.901 0 0 1 305.297 0.942 A 2.648 2.648 0 0 1 305.55 0.65 A 2.189 2.189 0 0 1 306.36 0.125 A 2.169 2.169 0 0 1 307.1 0 L 319.5 0 A 4.582 4.582 0 0 1 320.517 0.106 Q 321.253 0.274 321.783 0.704 A 2.822 2.822 0 0 1 322 0.9 Q 322.588 1.488 322.878 2.034 A 2.515 2.515 0 0 1 323.1 2.6 L 337.3 48.8 L 351.4 2.6 Q 351.632 1.983 352.191 1.305 A 8.161 8.161 0 0 1 352.55 0.9 Q 353.353 0.05 354.825 0.003 A 5.472 5.472 0 0 1 355 0 L 367.5 0 A 1.901 1.901 0 0 1 368.659 0.397 A 2.648 2.648 0 0 1 368.95 0.65 Q 369.6 1.3 369.6 2.1 A 1.91 1.91 0 0 1 369.562 2.469 Q 369.513 2.719 369.4 3 L 349 67 Q 348.7 68.2 347.7 69.1 A 3.299 3.299 0 0 1 346.39 69.809 Q 345.895 69.952 345.304 69.988 A 6.67 6.67 0 0 1 344.9 70 Z M 277.7 70 L 264.5 70 A 2.633 2.633 0 0 1 263.614 69.857 A 2.281 2.281 0 0 1 262.7 69.25 Q 262 68.5 262 67.5 L 262 15.7 L 244.2 15.7 A 2.633 2.633 0 0 1 243.314 15.557 A 2.281 2.281 0 0 1 242.4 14.95 Q 241.7 14.2 241.7 13.2 L 241.7 2.5 A 2.822 2.822 0 0 1 241.825 1.643 A 2.299 2.299 0 0 1 242.4 0.7 A 2.363 2.363 0 0 1 243.895 0.014 A 3.207 3.207 0 0 1 244.2 0 L 298 0 A 2.822 2.822 0 0 1 298.857 0.125 A 2.299 2.299 0 0 1 299.8 0.7 A 2.363 2.363 0 0 1 300.486 2.195 A 3.207 3.207 0 0 1 300.5 2.5 L 300.5 13.2 Q 300.5 14.2 299.8 14.95 A 2.325 2.325 0 0 1 298.136 15.697 A 3.12 3.12 0 0 1 298 15.7 L 280.2 15.7 L 280.2 67.5 Q 280.2 68.5 279.5 69.25 A 2.325 2.325 0 0 1 277.836 69.997 A 3.12 3.12 0 0 1 277.7 70 Z M 48.5 70 L 2.5 70 A 2.633 2.633 0 0 1 1.614 69.857 A 2.281 2.281 0 0 1 0.7 69.25 Q 0 68.5 0 67.5 L 0 2.5 A 2.822 2.822 0 0 1 0.125 1.643 A 2.299 2.299 0 0 1 0.7 0.7 A 2.363 2.363 0 0 1 2.195 0.014 A 3.207 3.207 0 0 1 2.5 0 L 15.7 0 A 2.822 2.822 0 0 1 16.557 0.125 A 2.299 2.299 0 0 1 17.5 0.7 A 2.363 2.363 0 0 1 18.186 2.195 A 3.207 3.207 0 0 1 18.2 2.5 L 18.2 54.9 L 48.5 54.9 A 2.633 2.633 0 0 1 49.386 55.044 A 2.281 2.281 0 0 1 50.3 55.65 A 2.581 2.581 0 0 1 50.997 57.364 A 3.357 3.357 0 0 1 51 57.5 L 51 67.5 A 2.484 2.484 0 0 1 50.3 69.25 A 2.325 2.325 0 0 1 48.636 69.997 A 3.12 3.12 0 0 1 48.5 70 Z M 75.6 70 L 62.2 70 A 2.633 2.633 0 0 1 61.314 69.857 A 2.281 2.281 0 0 1 60.4 69.25 Q 59.7 68.5 59.7 67.5 L 59.7 2.5 A 2.822 2.822 0 0 1 59.825 1.643 A 2.299 2.299 0 0 1 60.4 0.7 A 2.363 2.363 0 0 1 61.895 0.014 A 3.207 3.207 0 0 1 62.2 0 L 75.6 0 A 2.852 2.852 0 0 1 76.584 0.164 A 2.53 2.53 0 0 1 77.45 0.7 A 2.325 2.325 0 0 1 78.197 2.364 A 3.12 3.12 0 0 1 78.2 2.5 L 78.2 67.5 A 2.385 2.385 0 0 1 77.498 69.202 A 3.132 3.132 0 0 1 77.45 69.25 A 2.508 2.508 0 0 1 75.634 70 A 3.201 3.201 0 0 1 75.6 70 Z" vector-effect="non-scaling-stroke"/></g></svg>