<svg width="375.901" height="72.001" viewBox="0 0 375.901 72.001" xmlns="http://www.w3.org/2000/svg"><defs><linearGradient id="gradient" x1="0%" y1="0%" x2="100%" y2="0%"><stop offset="0%" stop-color="#AA5CC3" /><stop offset="100%" stop-color="#00A4DC" /></linearGradient></defs><g id="svgGroup" stroke-linecap="round" fill-rule="nonzero" font-size="9pt" stroke="url(#gradient)" stroke-width="0.25mm" fill="url(#gradient)" style="stroke:url(#gradient);stroke-width:0.25mm;fill:url(#gradient)"><path d="M 14.5 71.001 L 2.5 71.001 A 2.385 2.385 0 0 1 0.799 70.298 A 3.132 3.132 0 0 1 0.75 70.251 A 2.614 2.614 0 0 1 0.206 69.479 A 2.349 2.349 0 0 1 0 68.501 L 0 3.501 A 2.633 2.633 0 0 1 0.144 2.615 A 2.281 2.281 0 0 1 0.75 1.701 A 2.484 2.484 0 0 1 2.5 1.001 L 13.3 1.001 A 5.382 5.382 0 0 1 14.225 1.074 Q 15.236 1.251 15.8 1.851 Q 16.416 2.504 16.676 2.951 A 1.91 1.91 0 0 1 16.8 3.201 L 34.4 34.701 L 52 3.201 A 4.745 4.745 0 0 1 52.204 2.892 Q 52.439 2.562 52.81 2.127 A 21.362 21.362 0 0 1 53.05 1.851 Q 53.635 1.187 54.798 1.042 A 5.651 5.651 0 0 1 55.5 1.001 L 66.2 1.001 A 2.852 2.852 0 0 1 67.184 1.165 A 2.53 2.53 0 0 1 68.05 1.701 A 2.325 2.325 0 0 1 68.797 3.365 A 3.12 3.12 0 0 1 68.8 3.501 L 68.8 68.501 A 2.385 2.385 0 0 1 68.098 70.202 A 3.132 3.132 0 0 1 68.05 70.251 A 2.508 2.508 0 0 1 66.234 71 A 3.201 3.201 0 0 1 66.2 71.001 L 54.3 71.001 A 2.659 2.659 0 0 1 53.259 70.801 A 2.52 2.52 0 0 1 52.45 70.251 A 2.614 2.614 0 0 1 51.906 69.479 A 2.349 2.349 0 0 1 51.7 68.501 L 51.7 31.001 L 40.5 51.901 Q 40 52.801 39.2 53.501 Q 38.479 54.131 37.272 54.194 A 5.256 5.256 0 0 1 37 54.201 L 31.8 54.201 A 4.515 4.515 0 0 1 30.909 54.118 Q 30.382 54.012 29.973 53.77 A 2.482 2.482 0 0 1 29.6 53.501 Q 28.8 52.801 28.3 51.901 L 17 31.001 L 17 68.501 A 2.484 2.484 0 0 1 16.3 70.251 A 2.325 2.325 0 0 1 14.636 70.998 A 3.12 3.12 0 0 1 14.5 71.001 Z M 305.7 71.001 L 258.2 71.001 A 2.633 2.633 0 0 1 257.314 70.857 A 2.281 2.281 0 0 1 256.4 70.251 Q 255.7 69.501 255.7 68.501 L 255.7 3.501 A 2.822 2.822 0 0 1 255.825 2.644 A 2.299 2.299 0 0 1 256.4 1.701 A 2.363 2.363 0 0 1 257.895 1.015 A 3.207 3.207 0 0 1 258.2 1.001 L 304.9 1.001 A 2.822 2.822 0 0 1 305.757 1.125 A 2.299 2.299 0 0 1 306.7 1.701 A 2.363 2.363 0 0 1 307.386 3.195 A 3.207 3.207 0 0 1 307.4 3.501 L 307.4 12.901 A 2.822 2.822 0 0 1 307.276 13.757 A 2.299 2.299 0 0 1 306.7 14.701 A 2.363 2.363 0 0 1 305.206 15.386 A 3.207 3.207 0 0 1 304.9 15.401 L 273 15.401 L 273 28.901 L 302.7 28.901 A 2.633 2.633 0 0 1 303.586 29.044 A 2.281 2.281 0 0 1 304.5 29.651 A 2.581 2.581 0 0 1 305.197 31.364 A 3.357 3.357 0 0 1 305.2 31.501 L 305.2 40.201 Q 305.2 41.201 304.5 41.951 A 2.325 2.325 0 0 1 302.836 42.698 A 3.12 3.12 0 0 1 302.7 42.701 L 273 42.701 L 273 56.601 L 305.7 56.601 A 2.822 2.822 0 0 1 306.557 56.725 A 2.299 2.299 0 0 1 307.5 57.301 A 2.363 2.363 0 0 1 308.186 58.795 A 3.207 3.207 0 0 1 308.2 59.101 L 308.2 68.501 Q 308.2 69.501 307.5 70.251 A 2.325 2.325 0 0 1 305.836 70.998 A 3.12 3.12 0 0 1 305.7 71.001 Z M 317.7 49.801 L 330.3 49.801 Q 331.201 49.801 331.833 50.008 A 2.524 2.524 0 0 1 332.45 50.301 A 5.305 5.305 0 0 1 333.491 51.219 A 6.314 6.314 0 0 1 333.8 51.601 A 10.598 10.598 0 0 0 334.97 53.335 A 13.781 13.781 0 0 0 336.05 54.501 A 8.892 8.892 0 0 0 337.828 55.815 Q 338.756 56.345 339.9 56.751 Q 342.3 57.601 345.7 57.601 A 30.232 30.232 0 0 0 348.737 57.458 Q 352.002 57.127 354.051 56.029 A 8.259 8.259 0 0 0 354.45 55.801 A 7.085 7.085 0 0 0 356.068 54.479 A 5.2 5.2 0 0 0 357.4 50.901 A 5.354 5.354 0 0 0 357.126 49.15 A 4.504 4.504 0 0 0 355.8 47.201 Q 354.2 45.801 350.65 44.651 A 53.889 53.889 0 0 0 348.202 43.927 Q 345.351 43.151 341.46 42.354 A 170.553 170.553 0 0 0 341.2 42.301 A 73.122 73.122 0 0 1 335.084 40.75 Q 331.301 39.605 328.25 38.151 A 23.193 23.193 0 0 1 323.86 35.46 A 17.697 17.697 0 0 1 320.1 31.451 Q 317.305 27.307 317.3 21.12 A 28.484 28.484 0 0 1 317.3 21.101 Q 317.3 15.001 320.75 10.201 A 21.398 21.398 0 0 1 327.13 4.385 A 27.383 27.383 0 0 1 330.4 2.701 A 31.122 31.122 0 0 1 337.521 0.614 Q 340.774 0.048 344.47 0.004 A 52.715 52.715 0 0 1 345.1 0.001 A 44.916 44.916 0 0 1 351.111 0.383 Q 354.213 0.802 356.895 1.681 A 27.777 27.777 0 0 1 357.25 1.801 Q 362.5 3.601 366.1 6.601 A 26.831 26.831 0 0 1 369.091 9.49 A 19.647 19.647 0 0 1 371.55 12.951 A 16.934 16.934 0 0 1 372.9 16.058 A 12.793 12.793 0 0 1 373.5 19.501 A 2.174 2.174 0 0 1 373.001 20.889 A 2.751 2.751 0 0 1 372.95 20.951 A 1.792 1.792 0 0 1 371.844 21.565 A 2.644 2.644 0 0 1 371.4 21.601 L 358.2 21.601 A 5.091 5.091 0 0 1 357.295 21.524 A 3.672 3.672 0 0 1 356.3 21.201 A 3.283 3.283 0 0 1 355.421 20.549 A 4.476 4.476 0 0 1 354.9 19.901 Q 354.3 17.701 351.75 16.051 Q 349.549 14.626 346.194 14.431 A 18.857 18.857 0 0 0 345.1 14.401 Q 342.213 14.401 340.165 15.068 A 8.482 8.482 0 0 0 338.25 15.951 A 5.015 5.015 0 0 0 335.886 19.559 A 7.274 7.274 0 0 0 335.8 20.701 Q 335.8 22.701 337.15 24.201 A 6.505 6.505 0 0 0 338.291 25.184 Q 339.583 26.079 341.65 26.801 A 44.168 44.168 0 0 0 343.848 27.498 Q 346.342 28.224 349.803 28.991 A 152.784 152.784 0 0 0 350.3 29.101 A 96.05 96.05 0 0 1 356.143 30.37 Q 358.977 31.085 361.36 31.909 A 41.665 41.665 0 0 1 365 33.351 A 24.19 24.19 0 0 1 368.925 35.572 Q 371.169 37.154 372.663 39.119 A 14.44 14.44 0 0 1 373.25 39.951 Q 375.791 43.834 375.896 49.604 A 27.51 27.51 0 0 1 375.9 50.101 A 19.803 19.803 0 0 1 374.865 56.602 A 17.421 17.421 0 0 1 372 61.801 Q 368.1 66.701 361.35 69.351 A 37.116 37.116 0 0 1 353.324 71.456 A 50.916 50.916 0 0 1 345.7 72.001 A 57.925 57.925 0 0 1 338.712 71.604 Q 335.205 71.177 332.247 70.29 A 28.764 28.764 0 0 1 329.1 69.151 A 29.907 29.907 0 0 1 324.266 66.546 Q 321.119 64.432 319.1 61.701 Q 315.7 57.101 315.5 51.901 A 1.901 1.901 0 0 1 315.897 50.742 A 2.648 2.648 0 0 1 316.15 50.451 A 2.189 2.189 0 0 1 316.961 49.925 A 2.169 2.169 0 0 1 317.7 49.801 Z M 189.3 71.001 L 174 71.001 A 5.193 5.193 0 0 1 172.872 70.885 Q 171.942 70.678 171.3 70.101 A 5 5 0 0 1 170.173 68.652 A 4.713 4.713 0 0 1 169.9 68.001 L 149.5 4.001 Q 149.338 3.596 149.307 3.256 A 1.723 1.723 0 0 1 149.3 3.101 A 1.901 1.901 0 0 1 149.697 1.942 A 2.648 2.648 0 0 1 149.95 1.651 A 2.189 2.189 0 0 1 150.761 1.125 A 2.169 2.169 0 0 1 151.5 1.001 L 163.9 1.001 A 4.582 4.582 0 0 1 164.917 1.107 Q 165.653 1.274 166.183 1.705 A 2.822 2.822 0 0 1 166.4 1.901 Q 166.988 2.489 167.278 3.034 A 2.515 2.515 0 0 1 167.5 3.601 L 181.7 49.801 L 195.8 3.601 Q 196.032 2.983 196.591 2.306 A 8.161 8.161 0 0 1 196.95 1.901 Q 197.753 1.05 199.225 1.003 A 5.472 5.472 0 0 1 199.4 1.001 L 211.9 1.001 A 1.901 1.901 0 0 1 213.059 1.397 A 2.648 2.648 0 0 1 213.35 1.651 Q 214 2.301 214 3.101 A 1.91 1.91 0 0 1 213.962 3.47 Q 213.913 3.719 213.8 4.001 L 193.4 68.001 Q 193.1 69.201 192.1 70.101 A 3.299 3.299 0 0 1 190.79 70.809 Q 190.295 70.953 189.704 70.989 A 6.67 6.67 0 0 1 189.3 71.001 Z M 103.81 71.426 Q 99.404 70.717 95.7 69.131 A 29.885 29.885 0 0 1 95.4 69.001 Q 88.6 66.001 84.8 59.951 A 25.815 25.815 0 0 1 81.722 52.662 Q 80.788 49.066 80.6 44.801 Q 80.5 40.501 80.5 36.151 Q 80.5 31.801 80.6 27.501 A 37.862 37.862 0 0 1 81.552 20.414 Q 82.59 16.049 84.71 12.577 A 23.79 23.79 0 0 1 84.85 12.351 Q 88.7 6.201 95.55 3.101 A 34.146 34.146 0 0 1 104.442 0.512 A 45.423 45.423 0 0 1 111.4 0.001 A 45.143 45.143 0 0 1 119.301 0.659 A 33.216 33.216 0 0 1 127.3 3.101 Q 134.1 6.201 138 12.351 A 25.812 25.812 0 0 1 141.249 20.171 Q 142.069 23.563 142.2 27.501 Q 142.4 31.801 142.4 36.151 Q 142.4 40.501 142.2 44.801 Q 141.9 53.901 138.05 59.951 Q 134.2 66.001 127.4 69.001 Q 120.6 72.001 111.4 72.001 A 47.755 47.755 0 0 1 103.81 71.426 Z M 111.4 57.601 Q 116.7 57.601 120.05 54.401 A 10.041 10.041 0 0 0 122.424 50.759 Q 123.04 49.196 123.337 47.248 A 25.012 25.012 0 0 0 123.6 44.201 Q 123.8 39.801 123.8 35.901 Q 123.8 32.001 123.6 27.801 A 25.58 25.58 0 0 0 123.282 24.648 Q 123.015 23.059 122.541 21.737 A 12.351 12.351 0 0 0 121.85 20.151 A 10.786 10.786 0 0 0 119.879 17.454 A 9.397 9.397 0 0 0 117.6 15.801 A 12.409 12.409 0 0 0 113.51 14.537 A 15.804 15.804 0 0 0 111.4 14.401 Q 108 14.401 105.3 15.801 Q 102.6 17.201 101 20.151 A 13.194 13.194 0 0 0 99.876 23.038 Q 99.507 24.416 99.331 26.037 A 27.043 27.043 0 0 0 99.2 27.801 Q 99.1 32.001 99.1 35.901 Q 99.1 39.801 99.2 44.201 A 24.271 24.271 0 0 0 99.638 47.976 Q 100.482 52.138 102.85 54.401 A 11.434 11.434 0 0 0 109.667 57.506 A 15.475 15.475 0 0 0 111.4 57.601 Z M 239.2 71.001 L 225.8 71.001 A 2.633 2.633 0 0 1 224.914 70.857 A 2.281 2.281 0 0 1 224 70.251 Q 223.3 69.501 223.3 68.501 L 223.3 3.501 A 2.822 2.822 0 0 1 223.425 2.644 A 2.299 2.299 0 0 1 224 1.701 A 2.363 2.363 0 0 1 225.495 1.015 A 3.207 3.207 0 0 1 225.8 1.001 L 239.2 1.001 A 2.852 2.852 0 0 1 240.184 1.165 A 2.53 2.53 0 0 1 241.05 1.701 A 2.325 2.325 0 0 1 241.797 3.365 A 3.12 3.12 0 0 1 241.8 3.501 L 241.8 68.501 A 2.385 2.385 0 0 1 241.098 70.202 A 3.132 3.132 0 0 1 241.05 70.251 A 2.508 2.508 0 0 1 239.234 71 A 3.201 3.201 0 0 1 239.2 71.001 Z" vector-effect="non-scaling-stroke"/></g></svg>
