<svg width="313.714" height="72.001" viewBox="0 0 313.714 72.001" xmlns="http://www.w3.org/2000/svg"><defs><linearGradient id="gradient" x1="0%" y1="0%" x2="100%" y2="0%"><stop offset="0%" stop-color="#AA5CC3" /><stop offset="100%" stop-color="#00A4DC" /></linearGradient></defs><g id="svgGroup" stroke-linecap="round" fill-rule="nonzero" font-size="9pt" stroke="url(#gradient)" stroke-width="0.25mm" fill="url(#gradient)" style="stroke:url(#gradient);stroke-width:0.25mm;fill:url(#gradient)"><path d="M 14.5 71 L 2.5 71 A 2.385 2.385 0 0 1 0.799 70.298 A 3.132 3.132 0 0 1 0.75 70.25 A 2.614 2.614 0 0 1 0.206 69.479 A 2.349 2.349 0 0 1 0 68.5 L 0 3.5 A 2.633 2.633 0 0 1 0.144 2.614 A 2.281 2.281 0 0 1 0.75 1.7 A 2.484 2.484 0 0 1 2.5 1 L 13.3 1 A 5.382 5.382 0 0 1 14.225 1.074 Q 15.236 1.251 15.8 1.85 Q 16.416 2.504 16.676 2.951 A 1.91 1.91 0 0 1 16.8 3.2 L 34.4 34.7 L 52 3.2 A 4.745 4.745 0 0 1 52.204 2.891 Q 52.439 2.562 52.81 2.127 A 21.362 21.362 0 0 1 53.05 1.85 Q 53.635 1.187 54.798 1.041 A 5.651 5.651 0 0 1 55.5 1 L 66.2 1 A 2.852 2.852 0 0 1 67.184 1.165 A 2.53 2.53 0 0 1 68.05 1.7 A 2.325 2.325 0 0 1 68.797 3.364 A 3.12 3.12 0 0 1 68.8 3.5 L 68.8 68.5 A 2.385 2.385 0 0 1 68.098 70.202 A 3.132 3.132 0 0 1 68.05 70.25 A 2.508 2.508 0 0 1 66.234 71 A 3.201 3.201 0 0 1 66.2 71 L 54.3 71 A 2.659 2.659 0 0 1 53.259 70.801 A 2.52 2.52 0 0 1 52.45 70.25 A 2.614 2.614 0 0 1 51.906 69.479 A 2.349 2.349 0 0 1 51.7 68.5 L 51.7 31 L 40.5 51.9 Q 40 52.8 39.2 53.5 Q 38.479 54.131 37.272 54.193 A 5.256 5.256 0 0 1 37 54.2 L 31.8 54.2 A 4.515 4.515 0 0 1 30.909 54.118 Q 30.382 54.012 29.973 53.769 A 2.482 2.482 0 0 1 29.6 53.5 Q 28.8 52.8 28.3 51.9 L 17 31 L 17 68.5 A 2.484 2.484 0 0 1 16.3 70.25 A 2.325 2.325 0 0 1 14.636 70.997 A 3.12 3.12 0 0 1 14.5 71 Z M 153.4 49.8 L 166 49.8 Q 166.901 49.8 167.533 50.007 A 2.524 2.524 0 0 1 168.15 50.3 A 5.305 5.305 0 0 1 169.191 51.219 A 6.314 6.314 0 0 1 169.5 51.6 A 10.598 10.598 0 0 0 170.67 53.335 A 13.781 13.781 0 0 0 171.75 54.5 A 8.892 8.892 0 0 0 173.528 55.815 Q 174.456 56.345 175.6 56.75 Q 178 57.6 181.4 57.6 A 30.232 30.232 0 0 0 184.437 57.458 Q 187.702 57.127 189.751 56.029 A 8.259 8.259 0 0 0 190.15 55.8 A 7.085 7.085 0 0 0 191.768 54.479 A 5.2 5.2 0 0 0 193.1 50.9 A 5.354 5.354 0 0 0 192.826 49.15 A 4.504 4.504 0 0 0 191.5 47.2 Q 189.9 45.8 186.35 44.65 A 53.889 53.889 0 0 0 183.902 43.927 Q 181.051 43.151 177.16 42.353 A 170.553 170.553 0 0 0 176.9 42.3 A 73.122 73.122 0 0 1 170.784 40.75 Q 167.001 39.605 163.95 38.15 A 23.193 23.193 0 0 1 159.56 35.46 A 17.697 17.697 0 0 1 155.8 31.45 Q 153.005 27.307 153 21.12 A 28.484 28.484 0 0 1 153 21.1 Q 153 15 156.45 10.2 A 21.398 21.398 0 0 1 162.83 4.385 A 27.383 27.383 0 0 1 166.1 2.7 A 31.122 31.122 0 0 1 173.221 0.613 Q 176.474 0.048 180.17 0.004 A 52.715 52.715 0 0 1 180.8 0 A 44.916 44.916 0 0 1 186.811 0.383 Q 189.913 0.802 192.595 1.681 A 27.777 27.777 0 0 1 192.95 1.8 Q 198.2 3.6 201.8 6.6 A 26.831 26.831 0 0 1 204.791 9.49 A 19.647 19.647 0 0 1 207.25 12.95 A 16.934 16.934 0 0 1 208.6 16.058 A 12.793 12.793 0 0 1 209.2 19.5 A 2.174 2.174 0 0 1 208.701 20.889 A 2.751 2.751 0 0 1 208.65 20.95 A 1.792 1.792 0 0 1 207.544 21.565 A 2.644 2.644 0 0 1 207.1 21.6 L 193.9 21.6 A 5.091 5.091 0 0 1 192.995 21.524 A 3.672 3.672 0 0 1 192 21.2 A 3.283 3.283 0 0 1 191.121 20.549 A 4.476 4.476 0 0 1 190.6 19.9 Q 190 17.7 187.45 16.05 Q 185.249 14.626 181.894 14.431 A 18.857 18.857 0 0 0 180.8 14.4 Q 177.913 14.4 175.865 15.068 A 8.482 8.482 0 0 0 173.95 15.95 A 5.015 5.015 0 0 0 171.586 19.558 A 7.274 7.274 0 0 0 171.5 20.7 Q 171.5 22.7 172.85 24.2 A 6.505 6.505 0 0 0 173.991 25.184 Q 175.283 26.078 177.35 26.8 A 44.168 44.168 0 0 0 179.548 27.498 Q 182.042 28.224 185.503 28.991 A 152.784 152.784 0 0 0 186 29.1 A 96.05 96.05 0 0 1 191.843 30.369 Q 194.677 31.084 197.06 31.909 A 41.665 41.665 0 0 1 200.7 33.35 A 24.19 24.19 0 0 1 204.625 35.571 Q 206.869 37.154 208.363 39.118 A 14.44 14.44 0 0 1 208.95 39.95 Q 211.491 43.834 211.596 49.603 A 27.51 27.51 0 0 1 211.6 50.1 A 19.803 19.803 0 0 1 210.565 56.602 A 17.421 17.421 0 0 1 207.7 61.8 Q 203.8 66.7 197.05 69.35 A 37.116 37.116 0 0 1 189.024 71.456 A 50.916 50.916 0 0 1 181.4 72 A 57.925 57.925 0 0 1 174.412 71.604 Q 170.905 71.177 167.947 70.29 A 28.764 28.764 0 0 1 164.8 69.15 A 29.907 29.907 0 0 1 159.966 66.546 Q 156.819 64.432 154.8 61.7 Q 151.4 57.1 151.2 51.9 A 1.901 1.901 0 0 1 151.597 50.742 A 2.648 2.648 0 0 1 151.85 50.45 A 2.189 2.189 0 0 1 152.661 49.925 A 2.169 2.169 0 0 1 153.4 49.8 Z M 82.2 44.3 L 82.2 3.5 A 2.822 2.822 0 0 1 82.325 2.643 A 2.299 2.299 0 0 1 82.9 1.7 A 2.363 2.363 0 0 1 84.395 1.015 A 3.207 3.207 0 0 1 84.7 1 L 97.6 1 A 2.852 2.852 0 0 1 98.584 1.165 A 2.53 2.53 0 0 1 99.45 1.7 A 2.325 2.325 0 0 1 100.197 3.364 A 3.12 3.12 0 0 1 100.2 3.5 L 100.2 44.2 A 21.699 21.699 0 0 0 100.488 47.86 Q 101.145 51.691 103.3 53.95 A 10.071 10.071 0 0 0 108.191 56.743 Q 109.797 57.157 111.703 57.196 A 19.52 19.52 0 0 0 112.1 57.2 A 15.565 15.565 0 0 0 115.661 56.816 A 10.339 10.339 0 0 0 120.85 53.95 A 10.196 10.196 0 0 0 123.163 50.04 Q 123.699 48.446 123.892 46.498 A 23.346 23.346 0 0 0 124 44.2 L 124 3.5 A 2.633 2.633 0 0 1 124.144 2.614 A 2.281 2.281 0 0 1 124.75 1.7 Q 125.5 1 126.5 1 L 139.5 1 Q 140.5 1 141.25 1.7 A 2.325 2.325 0 0 1 141.997 3.364 A 3.12 3.12 0 0 1 142 3.5 L 142 44.3 A 40.126 40.126 0 0 1 141.48 50.954 Q 140.613 56.107 138.3 59.95 Q 134.6 66.1 127.9 69.05 A 33.722 33.722 0 0 1 119.76 71.415 A 46.522 46.522 0 0 1 112.2 72 A 47.595 47.595 0 0 1 104.687 71.436 Q 100.431 70.755 96.828 69.254 A 29.994 29.994 0 0 1 96.35 69.05 Q 89.6 66.1 85.9 59.95 Q 82.664 54.572 82.258 46.632 A 45.661 45.661 0 0 1 82.2 44.3 Z M 311.6 26.2 L 298.1 26.2 A 4.948 4.948 0 0 1 297.346 26.147 Q 296.952 26.086 296.633 25.956 A 2.202 2.202 0 0 1 296.1 25.65 A 2.386 2.386 0 0 1 295.652 25.174 Q 295.232 24.596 294.9 23.6 Q 294.008 20.222 292.404 18.205 A 8.016 8.016 0 0 0 290.35 16.35 A 12.607 12.607 0 0 0 286.223 14.747 Q 284.593 14.411 282.721 14.401 A 21.576 21.576 0 0 0 282.6 14.4 A 16.009 16.009 0 0 0 278.953 14.792 Q 275.953 15.493 273.9 17.45 A 9.428 9.428 0 0 0 271.779 20.597 Q 270.596 23.342 270.406 27.473 A 32.651 32.651 0 0 0 270.4 27.6 Q 270.1 35.8 270.4 44.4 Q 270.696 51.408 273.817 54.47 A 7.948 7.948 0 0 0 273.9 54.55 A 10.689 10.689 0 0 0 278.944 57.206 Q 280.62 57.6 282.592 57.6 A 12.414 12.414 0 0 0 282.6 57.6 A 17.624 17.624 0 0 0 286.232 57.244 A 12.742 12.742 0 0 0 290.4 55.6 Q 293.042 53.949 294.388 50.118 A 19.283 19.283 0 0 0 294.9 48.4 Q 295.3 46.9 296.05 46.35 A 2.607 2.607 0 0 1 296.874 45.956 Q 297.234 45.851 297.664 45.817 A 5.503 5.503 0 0 1 298.1 45.8 L 311.6 45.8 Q 312.5 45.8 313.15 46.4 A 1.755 1.755 0 0 1 313.573 46.977 Q 313.757 47.39 313.7 47.9 A 23.782 23.782 0 0 1 312.833 53.991 A 20.355 20.355 0 0 1 311.25 57.95 Q 308.9 62.4 304.7 65.55 Q 300.5 68.7 294.9 70.35 A 40.591 40.591 0 0 1 286.727 71.839 A 49.27 49.27 0 0 1 282.7 72 Q 273.799 72 267.23 69.221 A 28.987 28.987 0 0 1 266.5 68.9 A 24.387 24.387 0 0 1 258.629 63.307 A 23.292 23.292 0 0 1 255.95 59.8 Q 252.333 54.013 251.833 45.527 A 44.918 44.918 0 0 1 251.8 44.9 Q 251.7 40.8 251.7 36.1 A 400.775 400.775 0 0 1 251.756 29.275 A 350.459 350.459 0 0 1 251.8 27.1 A 36.224 36.224 0 0 1 252.801 19.985 A 26.615 26.615 0 0 1 256 12.3 Q 259.8 6.2 266.6 3.1 A 33.075 33.075 0 0 1 274.531 0.681 Q 278.103 0.043 282.157 0.003 A 55.145 55.145 0 0 1 282.7 0 A 46.246 46.246 0 0 1 290.466 0.629 A 38.581 38.581 0 0 1 294.9 1.65 A 32.531 32.531 0 0 1 301.353 4.299 A 27.915 27.915 0 0 1 304.7 6.45 Q 308.9 9.6 311.25 14.05 A 21.237 21.237 0 0 1 313.549 21.705 A 25.97 25.97 0 0 1 313.7 24.1 A 2.127 2.127 0 0 1 313.713 24.331 Q 313.715 25.079 313.15 25.6 Q 312.5 26.2 311.6 26.2 Z M 237.5 71 L 224.1 71 A 2.633 2.633 0 0 1 223.214 70.857 A 2.281 2.281 0 0 1 222.3 70.25 Q 221.6 69.5 221.6 68.5 L 221.6 3.5 A 2.822 2.822 0 0 1 221.725 2.643 A 2.299 2.299 0 0 1 222.3 1.7 A 2.363 2.363 0 0 1 223.795 1.015 A 3.207 3.207 0 0 1 224.1 1 L 237.5 1 A 2.852 2.852 0 0 1 238.484 1.165 A 2.53 2.53 0 0 1 239.35 1.7 A 2.325 2.325 0 0 1 240.097 3.364 A 3.12 3.12 0 0 1 240.1 3.5 L 240.1 68.5 A 2.385 2.385 0 0 1 239.398 70.202 A 3.132 3.132 0 0 1 239.35 70.25 A 2.508 2.508 0 0 1 237.534 71 A 3.201 3.201 0 0 1 237.5 71 Z" vector-effect="non-scaling-stroke"/></g></svg>
