<svg width="544.701" height="72.001" viewBox="0 0 544.701 72.001" xmlns="http://www.w3.org/2000/svg"><defs><linearGradient id="gradient" x1="0%" y1="0%" x2="100%" y2="0%"><stop offset="0%" stop-color="#AA5CC3" /><stop offset="100%" stop-color="#00A4DC" /></linearGradient></defs><g id="svgGroup" stroke-linecap="round" fill-rule="nonzero" font-size="9pt" stroke="url(#gradient)" stroke-width="0.25mm" fill="url(#gradient)" style="stroke:url(#gradient);stroke-width:0.25mm;fill:url(#gradient)"><path d="M 357.2 49.8 L 369.8 49.8 Q 370.701 49.8 371.333 50.007 A 2.524 2.524 0 0 1 371.95 50.3 A 5.305 5.305 0 0 1 372.991 51.219 A 6.314 6.314 0 0 1 373.3 51.6 A 10.598 10.598 0 0 0 374.47 53.335 A 13.781 13.781 0 0 0 375.55 54.5 A 8.892 8.892 0 0 0 377.328 55.815 Q 378.256 56.345 379.4 56.75 Q 381.8 57.6 385.2 57.6 A 30.232 30.232 0 0 0 388.237 57.458 Q 391.502 57.127 393.551 56.029 A 8.259 8.259 0 0 0 393.95 55.8 A 7.085 7.085 0 0 0 395.568 54.479 A 5.2 5.2 0 0 0 396.9 50.9 A 5.354 5.354 0 0 0 396.626 49.15 A 4.504 4.504 0 0 0 395.3 47.2 Q 393.7 45.8 390.15 44.65 A 53.889 53.889 0 0 0 387.702 43.927 Q 384.851 43.151 380.96 42.353 A 170.553 170.553 0 0 0 380.7 42.3 A 73.122 73.122 0 0 1 374.584 40.75 Q 370.801 39.605 367.75 38.15 A 23.193 23.193 0 0 1 363.36 35.46 A 17.697 17.697 0 0 1 359.6 31.45 Q 356.805 27.307 356.8 21.12 A 28.484 28.484 0 0 1 356.8 21.1 Q 356.8 15 360.25 10.2 A 21.398 21.398 0 0 1 366.63 4.385 A 27.383 27.383 0 0 1 369.9 2.7 A 31.122 31.122 0 0 1 377.021 0.613 Q 380.274 0.048 383.97 0.004 A 52.715 52.715 0 0 1 384.6 0 A 44.916 44.916 0 0 1 390.611 0.383 Q 393.713 0.802 396.394 1.681 A 27.777 27.777 0 0 1 396.75 1.8 Q 402 3.6 405.6 6.6 A 26.831 26.831 0 0 1 408.591 9.49 A 19.647 19.647 0 0 1 411.05 12.95 A 16.934 16.934 0 0 1 412.4 16.058 A 12.793 12.793 0 0 1 413 19.5 A 2.174 2.174 0 0 1 412.5 20.889 A 2.751 2.751 0 0 1 412.45 20.95 A 1.792 1.792 0 0 1 411.344 21.565 A 2.644 2.644 0 0 1 410.9 21.6 L 397.7 21.6 A 5.091 5.091 0 0 1 396.795 21.524 A 3.672 3.672 0 0 1 395.8 21.2 A 3.283 3.283 0 0 1 394.921 20.549 A 4.476 4.476 0 0 1 394.4 19.9 Q 393.8 17.7 391.25 16.05 Q 389.049 14.626 385.694 14.431 A 18.857 18.857 0 0 0 384.6 14.4 Q 381.713 14.4 379.665 15.068 A 8.482 8.482 0 0 0 377.75 15.95 A 5.015 5.015 0 0 0 375.386 19.558 A 7.274 7.274 0 0 0 375.3 20.7 Q 375.3 22.7 376.65 24.2 A 6.505 6.505 0 0 0 377.791 25.184 Q 379.083 26.078 381.15 26.8 A 44.168 44.168 0 0 0 383.348 27.498 Q 385.842 28.224 389.303 28.991 A 152.784 152.784 0 0 0 389.8 29.1 A 96.05 96.05 0 0 1 395.643 30.369 Q 398.477 31.084 400.86 31.909 A 41.665 41.665 0 0 1 404.5 33.35 A 24.19 24.19 0 0 1 408.425 35.571 Q 410.669 37.154 412.163 39.118 A 14.44 14.44 0 0 1 412.75 39.95 Q 415.291 43.834 415.396 49.603 A 27.51 27.51 0 0 1 415.4 50.1 A 19.803 19.803 0 0 1 414.365 56.602 A 17.421 17.421 0 0 1 411.5 61.8 Q 407.6 66.7 400.85 69.35 A 37.116 37.116 0 0 1 392.824 71.456 A 50.916 50.916 0 0 1 385.2 72 A 57.925 57.925 0 0 1 378.212 71.604 Q 374.705 71.177 371.747 70.29 A 28.764 28.764 0 0 1 368.6 69.15 A 29.907 29.907 0 0 1 363.766 66.546 Q 360.619 64.432 358.6 61.7 Q 355.2 57.1 355 51.9 A 1.901 1.901 0 0 1 355.397 50.742 A 2.648 2.648 0 0 1 355.65 50.45 A 2.189 2.189 0 0 1 356.46 49.925 A 2.169 2.169 0 0 1 357.2 49.8 Z M 486.5 49.8 L 499.1 49.8 Q 500.001 49.8 500.633 50.007 A 2.524 2.524 0 0 1 501.25 50.3 A 5.305 5.305 0 0 1 502.291 51.219 A 6.314 6.314 0 0 1 502.6 51.6 A 10.598 10.598 0 0 0 503.77 53.335 A 13.781 13.781 0 0 0 504.85 54.5 A 8.892 8.892 0 0 0 506.628 55.815 Q 507.556 56.345 508.7 56.75 Q 511.1 57.6 514.5 57.6 A 30.232 30.232 0 0 0 517.537 57.458 Q 520.802 57.127 522.851 56.029 A 8.259 8.259 0 0 0 523.25 55.8 A 7.085 7.085 0 0 0 524.868 54.479 A 5.2 5.2 0 0 0 526.2 50.9 A 5.354 5.354 0 0 0 525.926 49.15 A 4.504 4.504 0 0 0 524.6 47.2 Q 523 45.8 519.45 44.65 A 53.889 53.889 0 0 0 517.002 43.927 Q 514.151 43.151 510.26 42.353 A 170.553 170.553 0 0 0 510 42.3 A 73.122 73.122 0 0 1 503.884 40.75 Q 500.101 39.605 497.05 38.15 A 23.193 23.193 0 0 1 492.66 35.46 A 17.697 17.697 0 0 1 488.9 31.45 Q 486.105 27.307 486.1 21.12 A 28.484 28.484 0 0 1 486.1 21.1 Q 486.1 15 489.55 10.2 A 21.398 21.398 0 0 1 495.93 4.385 A 27.383 27.383 0 0 1 499.2 2.7 A 31.122 31.122 0 0 1 506.321 0.613 Q 509.574 0.048 513.27 0.004 A 52.715 52.715 0 0 1 513.9 0 A 44.916 44.916 0 0 1 519.911 0.383 Q 523.013 0.802 525.694 1.681 A 27.777 27.777 0 0 1 526.05 1.8 Q 531.3 3.6 534.9 6.6 A 26.831 26.831 0 0 1 537.891 9.49 A 19.647 19.647 0 0 1 540.35 12.95 A 16.934 16.934 0 0 1 541.7 16.058 A 12.793 12.793 0 0 1 542.3 19.5 A 2.174 2.174 0 0 1 541.8 20.889 A 2.751 2.751 0 0 1 541.75 20.95 A 1.792 1.792 0 0 1 540.644 21.565 A 2.644 2.644 0 0 1 540.2 21.6 L 527 21.6 A 5.091 5.091 0 0 1 526.095 21.524 A 3.672 3.672 0 0 1 525.1 21.2 A 3.283 3.283 0 0 1 524.221 20.549 A 4.476 4.476 0 0 1 523.7 19.9 Q 523.1 17.7 520.55 16.05 Q 518.349 14.626 514.994 14.431 A 18.857 18.857 0 0 0 513.9 14.4 Q 511.013 14.4 508.965 15.068 A 8.482 8.482 0 0 0 507.05 15.95 A 5.015 5.015 0 0 0 504.686 19.558 A 7.274 7.274 0 0 0 504.6 20.7 Q 504.6 22.7 505.95 24.2 A 6.505 6.505 0 0 0 507.091 25.184 Q 508.383 26.078 510.45 26.8 A 44.168 44.168 0 0 0 512.648 27.498 Q 515.142 28.224 518.603 28.991 A 152.784 152.784 0 0 0 519.1 29.1 A 96.05 96.05 0 0 1 524.943 30.369 Q 527.777 31.084 530.16 31.909 A 41.665 41.665 0 0 1 533.8 33.35 A 24.19 24.19 0 0 1 537.725 35.571 Q 539.969 37.154 541.463 39.118 A 14.44 14.44 0 0 1 542.05 39.95 Q 544.591 43.834 544.696 49.603 A 27.51 27.51 0 0 1 544.7 50.1 A 19.803 19.803 0 0 1 543.665 56.602 A 17.421 17.421 0 0 1 540.8 61.8 Q 536.9 66.7 530.15 69.35 A 37.116 37.116 0 0 1 522.124 71.456 A 50.916 50.916 0 0 1 514.5 72 A 57.925 57.925 0 0 1 507.512 71.604 Q 504.005 71.177 501.047 70.29 A 28.764 28.764 0 0 1 497.9 69.15 A 29.907 29.907 0 0 1 493.066 66.546 Q 489.919 64.432 487.9 61.7 Q 484.5 57.1 484.3 51.9 A 1.901 1.901 0 0 1 484.697 50.742 A 2.648 2.648 0 0 1 484.95 50.45 A 2.189 2.189 0 0 1 485.76 49.925 A 2.169 2.169 0 0 1 486.5 49.8 Z M 232.4 71 L 219.4 71 A 2.385 2.385 0 0 1 217.699 70.298 A 3.132 3.132 0 0 1 217.65 70.25 A 2.614 2.614 0 0 1 217.106 69.479 A 2.349 2.349 0 0 1 216.9 68.5 L 216.9 47 L 193.7 4.2 Q 193.6 3.9 193.5 3.65 Q 193.4 3.4 193.4 3.1 A 1.901 1.901 0 0 1 193.797 1.942 A 2.648 2.648 0 0 1 194.05 1.65 A 2.189 2.189 0 0 1 194.86 1.125 A 2.169 2.169 0 0 1 195.6 1 L 208.1 1 A 4.836 4.836 0 0 1 209.045 1.087 Q 209.889 1.255 210.45 1.75 A 8.264 8.264 0 0 1 210.917 2.193 Q 211.392 2.683 211.6 3.1 L 225.9 28.9 L 240.3 3.1 Q 240.6 2.5 241.45 1.75 A 2.833 2.833 0 0 1 242.574 1.154 Q 243.001 1.034 243.509 1.008 A 5.627 5.627 0 0 1 243.8 1 L 256.3 1 A 2.038 2.038 0 0 1 257.169 1.182 A 2.007 2.007 0 0 1 257.8 1.65 A 2.372 2.372 0 0 1 258.216 2.259 A 1.974 1.974 0 0 1 258.4 3.1 A 3.135 3.135 0 0 1 258.385 3.418 A 2.454 2.454 0 0 1 258.35 3.65 Q 258.301 3.898 258.202 4.196 A 7.405 7.405 0 0 1 258.2 4.2 L 235 47 L 235 68.5 A 2.385 2.385 0 0 1 234.298 70.202 A 3.132 3.132 0 0 1 234.25 70.25 A 2.508 2.508 0 0 1 232.434 71 A 3.201 3.201 0 0 1 232.4 71 Z M 135.6 71 L 123.3 71 A 1.901 1.901 0 0 1 122.142 70.604 A 2.648 2.648 0 0 1 121.85 70.35 Q 121.2 69.7 121.2 68.9 Q 121.2 68.4 121.3 68 L 144.8 3.8 A 3.854 3.854 0 0 1 145.666 2.234 A 4.852 4.852 0 0 1 146.05 1.85 A 3.141 3.141 0 0 1 147.292 1.181 Q 147.76 1.045 148.318 1.012 A 6.303 6.303 0 0 1 148.7 1 L 163.5 1 A 5.47 5.47 0 0 1 164.558 1.096 Q 165.519 1.286 166.15 1.85 A 4.432 4.432 0 0 1 166.957 2.793 A 3.728 3.728 0 0 1 167.4 3.8 L 190.8 68 A 1.904 1.904 0 0 1 190.989 68.671 A 2.337 2.337 0 0 1 191 68.9 A 1.901 1.901 0 0 1 190.603 70.059 A 2.648 2.648 0 0 1 190.35 70.35 A 2.189 2.189 0 0 1 189.54 70.876 A 2.169 2.169 0 0 1 188.8 71 L 176.5 71 A 4.782 4.782 0 0 1 175.656 70.931 Q 175.193 70.847 174.83 70.665 A 2.223 2.223 0 0 1 174.25 70.25 A 6.426 6.426 0 0 1 173.853 69.818 Q 173.473 69.361 173.324 68.967 A 1.759 1.759 0 0 1 173.3 68.9 L 169.4 58.7 L 142.7 58.7 L 138.9 68.9 A 2.414 2.414 0 0 1 138.704 69.331 Q 138.46 69.758 138 70.25 Q 137.3 71 135.6 71 Z M 156.1 17.9 L 146.8 44.3 L 165.4 44.3 L 156.1 17.9 Z M 456.5 71 L 443.3 71 A 2.633 2.633 0 0 1 442.414 70.857 A 2.281 2.281 0 0 1 441.5 70.25 Q 440.8 69.5 440.8 68.5 L 440.8 16.7 L 423 16.7 A 2.633 2.633 0 0 1 422.114 16.557 A 2.281 2.281 0 0 1 421.2 15.95 Q 420.5 15.2 420.5 14.2 L 420.5 3.5 A 2.822 2.822 0 0 1 420.625 2.643 A 2.299 2.299 0 0 1 421.2 1.7 A 2.363 2.363 0 0 1 422.695 1.015 A 3.207 3.207 0 0 1 423 1 L 476.8 1 A 2.822 2.822 0 0 1 477.657 1.125 A 2.299 2.299 0 0 1 478.6 1.7 A 2.363 2.363 0 0 1 479.286 3.195 A 3.207 3.207 0 0 1 479.3 3.5 L 479.3 14.2 Q 479.3 15.2 478.6 15.95 A 2.325 2.325 0 0 1 476.936 16.697 A 3.12 3.12 0 0 1 476.8 16.7 L 459 16.7 L 459 68.5 Q 459 69.5 458.3 70.25 A 2.325 2.325 0 0 1 456.636 70.997 A 3.12 3.12 0 0 1 456.5 71 Z M 116.1 71 L 70.1 71 A 2.633 2.633 0 0 1 69.214 70.857 A 2.281 2.281 0 0 1 68.3 70.25 Q 67.6 69.5 67.6 68.5 L 67.6 3.5 A 2.822 2.822 0 0 1 67.725 2.643 A 2.299 2.299 0 0 1 68.3 1.7 A 2.363 2.363 0 0 1 69.795 1.015 A 3.207 3.207 0 0 1 70.1 1 L 83.3 1 A 2.822 2.822 0 0 1 84.157 1.125 A 2.299 2.299 0 0 1 85.1 1.7 A 2.363 2.363 0 0 1 85.786 3.195 A 3.207 3.207 0 0 1 85.8 3.5 L 85.8 55.9 L 116.1 55.9 A 2.633 2.633 0 0 1 116.986 56.044 A 2.281 2.281 0 0 1 117.9 56.65 A 2.581 2.581 0 0 1 118.597 58.364 A 3.357 3.357 0 0 1 118.6 58.5 L 118.6 68.5 A 2.484 2.484 0 0 1 117.9 70.25 A 2.325 2.325 0 0 1 116.236 70.997 A 3.12 3.12 0 0 1 116.1 71 Z M 315.5 71 L 269.5 71 A 2.633 2.633 0 0 1 268.614 70.857 A 2.281 2.281 0 0 1 267.7 70.25 Q 267 69.5 267 68.5 L 267 3.5 A 2.822 2.822 0 0 1 267.125 2.643 A 2.299 2.299 0 0 1 267.7 1.7 A 2.363 2.363 0 0 1 269.195 1.015 A 3.207 3.207 0 0 1 269.5 1 L 282.7 1 A 2.822 2.822 0 0 1 283.557 1.125 A 2.299 2.299 0 0 1 284.5 1.7 A 2.363 2.363 0 0 1 285.186 3.195 A 3.207 3.207 0 0 1 285.2 3.5 L 285.2 55.9 L 315.5 55.9 A 2.633 2.633 0 0 1 316.386 56.044 A 2.281 2.281 0 0 1 317.3 56.65 A 2.581 2.581 0 0 1 317.997 58.364 A 3.357 3.357 0 0 1 318 58.5 L 318 68.5 A 2.484 2.484 0 0 1 317.3 70.25 A 2.325 2.325 0 0 1 315.636 70.997 A 3.12 3.12 0 0 1 315.5 71 Z M 16 71 L 2.5 71 A 2.633 2.633 0 0 1 1.614 70.857 A 2.281 2.281 0 0 1 0.7 70.25 Q 0 69.5 0 68.5 L 0 3.5 A 2.822 2.822 0 0 1 0.125 2.643 A 2.299 2.299 0 0 1 0.7 1.7 A 2.363 2.363 0 0 1 2.195 1.015 A 3.207 3.207 0 0 1 2.5 1 L 30.5 1 A 45.733 45.733 0 0 1 37.351 1.488 Q 41.491 2.116 44.95 3.55 A 22.219 22.219 0 0 1 51.23 7.414 A 20.006 20.006 0 0 1 54.55 11.2 Q 57.859 16.091 57.994 23.465 A 34.528 34.528 0 0 1 58 24.1 A 28.245 28.245 0 0 1 57.484 29.652 Q 56.794 33.096 55.18 35.817 A 17.018 17.018 0 0 1 54.55 36.8 Q 51.1 41.8 44.95 44.2 A 33.586 33.586 0 0 1 38.036 46.037 Q 34.52 46.6 30.5 46.6 L 18.6 46.6 L 18.6 68.5 A 2.385 2.385 0 0 1 17.898 70.202 A 3.132 3.132 0 0 1 17.85 70.25 A 2.508 2.508 0 0 1 16.034 71 A 3.201 3.201 0 0 1 16 71 Z M 18.3 14.9 L 18.3 32.8 L 30 32.8 Q 34.3 32.8 36.85 30.6 Q 39.131 28.632 39.372 24.824 A 14.654 14.654 0 0 0 39.4 23.9 A 10.874 10.874 0 0 0 38.948 20.703 A 8.976 8.976 0 0 0 37.2 17.5 Q 35 14.9 30 14.9 L 18.3 14.9 Z M 342.6 71 L 329.2 71 A 2.633 2.633 0 0 1 328.314 70.857 A 2.281 2.281 0 0 1 327.4 70.25 Q 326.7 69.5 326.7 68.5 L 326.7 3.5 A 2.822 2.822 0 0 1 326.825 2.643 A 2.299 2.299 0 0 1 327.4 1.7 A 2.363 2.363 0 0 1 328.895 1.015 A 3.207 3.207 0 0 1 329.2 1 L 342.6 1 A 2.852 2.852 0 0 1 343.584 1.165 A 2.53 2.53 0 0 1 344.45 1.7 A 2.325 2.325 0 0 1 345.197 3.364 A 3.12 3.12 0 0 1 345.2 3.5 L 345.2 68.5 A 2.385 2.385 0 0 1 344.498 70.202 A 3.132 3.132 0 0 1 344.45 70.25 A 2.508 2.508 0 0 1 342.634 71 A 3.201 3.201 0 0 1 342.6 71 Z" vector-effect="non-scaling-stroke"/></g></svg>
