<svg width="509.901" height="72.001" viewBox="0 0 509.901 72.001" xmlns="http://www.w3.org/2000/svg"><defs><linearGradient id="gradient" x1="0%" y1="0%" x2="100%" y2="0%"><stop offset="0%" stop-color="#AA5CC3" /><stop offset="100%" stop-color="#00A4DC" /></linearGradient></defs><g id="svgGroup" stroke-linecap="round" fill-rule="nonzero" font-size="9pt" stroke="url(#gradient)" stroke-width="0.25mm" fill="url(#gradient)" style="stroke:url(#gradient);stroke-width:0.25mm;fill:url(#gradient)"><path d="M 391.2 71.001 L 381.7 71.001 A 4.672 4.672 0 0 1 380.546 70.866 A 3.287 3.287 0 0 1 379 70.001 Q 378 69.001 377.8 67.701 L 366.9 3.801 Q 366.8 3.501 366.8 3.351 L 366.8 3.101 A 1.901 1.901 0 0 1 367.197 1.942 A 2.648 2.648 0 0 1 367.45 1.651 Q 368.1 1.001 368.9 1.001 L 381.3 1.001 Q 384.1 1.001 384.4 3.201 L 390.9 42.201 L 398.1 19.201 A 5.549 5.549 0 0 1 398.41 18.526 Q 398.582 18.206 398.808 17.866 A 10.787 10.787 0 0 1 399.1 17.451 A 2.19 2.19 0 0 1 400.239 16.66 Q 400.744 16.501 401.4 16.501 L 408.6 16.501 Q 410.3 16.501 411 17.451 A 7.32 7.32 0 0 1 411.439 18.114 Q 411.772 18.688 411.9 19.201 L 419.1 42.201 L 425.6 3.201 A 2.571 2.571 0 0 1 426.015 2.064 Q 426.753 1.001 428.7 1.001 L 441.1 1.001 A 2.112 2.112 0 0 1 442.63 1.63 A 2.638 2.638 0 0 1 442.65 1.651 Q 443.3 2.301 443.3 3.101 Q 443.3 3.201 443.25 3.351 A 0.744 0.744 0 0 0 443.225 3.453 Q 443.206 3.559 443.201 3.71 A 3.193 3.193 0 0 0 443.2 3.801 L 432.3 67.701 A 4.024 4.024 0 0 1 431.251 69.842 A 4.998 4.998 0 0 1 431.1 70.001 A 3.335 3.335 0 0 1 429.348 70.912 A 4.854 4.854 0 0 1 428.4 71.001 L 418.9 71.001 A 5.133 5.133 0 0 1 417.882 70.906 Q 417.281 70.784 416.819 70.506 A 2.708 2.708 0 0 1 416.3 70.101 A 7.481 7.481 0 0 1 415.755 69.497 Q 415.298 68.927 415.1 68.401 L 405 39.801 L 394.9 68.401 Q 394.669 69.018 394.109 69.695 A 8.161 8.161 0 0 1 393.75 70.101 A 2.672 2.672 0 0 1 392.607 70.803 Q 391.997 71.001 391.2 71.001 Z M 156.6 49.801 L 169.2 49.801 Q 170.101 49.801 170.733 50.008 A 2.524 2.524 0 0 1 171.35 50.301 A 5.305 5.305 0 0 1 172.391 51.219 A 6.314 6.314 0 0 1 172.7 51.601 A 10.598 10.598 0 0 0 173.87 53.335 A 13.781 13.781 0 0 0 174.95 54.501 A 8.892 8.892 0 0 0 176.728 55.815 Q 177.656 56.345 178.8 56.751 Q 181.2 57.601 184.6 57.601 A 30.232 30.232 0 0 0 187.637 57.458 Q 190.902 57.127 192.951 56.029 A 8.259 8.259 0 0 0 193.35 55.801 A 7.085 7.085 0 0 0 194.968 54.479 A 5.2 5.2 0 0 0 196.3 50.901 A 5.354 5.354 0 0 0 196.026 49.15 A 4.504 4.504 0 0 0 194.7 47.201 Q 193.1 45.801 189.55 44.651 A 53.889 53.889 0 0 0 187.102 43.927 Q 184.251 43.151 180.36 42.354 A 170.553 170.553 0 0 0 180.1 42.301 A 73.122 73.122 0 0 1 173.984 40.75 Q 170.201 39.605 167.15 38.151 A 23.193 23.193 0 0 1 162.76 35.46 A 17.697 17.697 0 0 1 159 31.451 Q 156.205 27.307 156.2 21.12 A 28.484 28.484 0 0 1 156.2 21.101 Q 156.2 15.001 159.65 10.201 A 21.398 21.398 0 0 1 166.03 4.385 A 27.383 27.383 0 0 1 169.3 2.701 A 31.122 31.122 0 0 1 176.421 0.614 Q 179.674 0.048 183.37 0.004 A 52.715 52.715 0 0 1 184 0.001 A 44.916 44.916 0 0 1 190.011 0.383 Q 193.113 0.802 195.794 1.681 A 27.777 27.777 0 0 1 196.15 1.801 Q 201.4 3.601 205 6.601 A 26.831 26.831 0 0 1 207.991 9.49 A 19.647 19.647 0 0 1 210.45 12.951 A 16.934 16.934 0 0 1 211.8 16.058 A 12.793 12.793 0 0 1 212.4 19.501 A 2.174 2.174 0 0 1 211.9 20.889 A 2.751 2.751 0 0 1 211.85 20.951 A 1.792 1.792 0 0 1 210.744 21.565 A 2.644 2.644 0 0 1 210.3 21.601 L 197.1 21.601 A 5.091 5.091 0 0 1 196.195 21.524 A 3.672 3.672 0 0 1 195.2 21.201 A 3.283 3.283 0 0 1 194.321 20.549 A 4.476 4.476 0 0 1 193.8 19.901 Q 193.2 17.701 190.65 16.051 Q 188.449 14.626 185.094 14.431 A 18.857 18.857 0 0 0 184 14.401 Q 181.113 14.401 179.065 15.068 A 8.482 8.482 0 0 0 177.15 15.951 A 5.015 5.015 0 0 0 174.786 19.559 A 7.274 7.274 0 0 0 174.7 20.701 Q 174.7 22.701 176.05 24.201 A 6.505 6.505 0 0 0 177.191 25.184 Q 178.483 26.079 180.55 26.801 A 44.168 44.168 0 0 0 182.748 27.498 Q 185.242 28.224 188.703 28.991 A 152.784 152.784 0 0 0 189.2 29.101 A 96.05 96.05 0 0 1 195.043 30.37 Q 197.877 31.085 200.26 31.909 A 41.665 41.665 0 0 1 203.9 33.351 A 24.19 24.19 0 0 1 207.825 35.572 Q 210.069 37.154 211.563 39.119 A 14.44 14.44 0 0 1 212.15 39.951 Q 214.691 43.834 214.796 49.604 A 27.51 27.51 0 0 1 214.8 50.101 A 19.803 19.803 0 0 1 213.765 56.602 A 17.421 17.421 0 0 1 210.9 61.801 Q 207 66.701 200.25 69.351 A 37.116 37.116 0 0 1 192.224 71.456 A 50.916 50.916 0 0 1 184.6 72.001 A 57.925 57.925 0 0 1 177.612 71.604 Q 174.105 71.177 171.147 70.29 A 28.764 28.764 0 0 1 168 69.151 A 29.907 29.907 0 0 1 163.166 66.546 Q 160.019 64.432 158 61.701 Q 154.6 57.101 154.4 51.901 A 1.901 1.901 0 0 1 154.797 50.742 A 2.648 2.648 0 0 1 155.05 50.451 A 2.189 2.189 0 0 1 155.86 49.925 A 2.169 2.169 0 0 1 156.6 49.801 Z M 451.7 49.801 L 464.3 49.801 Q 465.201 49.801 465.833 50.008 A 2.524 2.524 0 0 1 466.45 50.301 A 5.305 5.305 0 0 1 467.491 51.219 A 6.314 6.314 0 0 1 467.8 51.601 A 10.598 10.598 0 0 0 468.97 53.335 A 13.781 13.781 0 0 0 470.05 54.501 A 8.892 8.892 0 0 0 471.828 55.815 Q 472.756 56.345 473.9 56.751 Q 476.3 57.601 479.7 57.601 A 30.232 30.232 0 0 0 482.737 57.458 Q 486.002 57.127 488.051 56.029 A 8.259 8.259 0 0 0 488.45 55.801 A 7.085 7.085 0 0 0 490.068 54.479 A 5.2 5.2 0 0 0 491.4 50.901 A 5.354 5.354 0 0 0 491.126 49.15 A 4.504 4.504 0 0 0 489.8 47.201 Q 488.2 45.801 484.65 44.651 A 53.889 53.889 0 0 0 482.202 43.927 Q 479.351 43.151 475.46 42.354 A 170.553 170.553 0 0 0 475.2 42.301 A 73.122 73.122 0 0 1 469.084 40.75 Q 465.301 39.605 462.25 38.151 A 23.193 23.193 0 0 1 457.86 35.46 A 17.697 17.697 0 0 1 454.1 31.451 Q 451.305 27.307 451.3 21.12 A 28.484 28.484 0 0 1 451.3 21.101 Q 451.3 15.001 454.75 10.201 A 21.398 21.398 0 0 1 461.13 4.385 A 27.383 27.383 0 0 1 464.4 2.701 A 31.122 31.122 0 0 1 471.521 0.614 Q 474.774 0.048 478.47 0.004 A 52.715 52.715 0 0 1 479.1 0.001 A 44.916 44.916 0 0 1 485.111 0.383 Q 488.213 0.802 490.894 1.681 A 27.777 27.777 0 0 1 491.25 1.801 Q 496.5 3.601 500.1 6.601 A 26.831 26.831 0 0 1 503.091 9.49 A 19.647 19.647 0 0 1 505.55 12.951 A 16.934 16.934 0 0 1 506.9 16.058 A 12.793 12.793 0 0 1 507.5 19.501 A 2.174 2.174 0 0 1 507 20.889 A 2.751 2.751 0 0 1 506.95 20.951 A 1.792 1.792 0 0 1 505.844 21.565 A 2.644 2.644 0 0 1 505.4 21.601 L 492.2 21.601 A 5.091 5.091 0 0 1 491.295 21.524 A 3.672 3.672 0 0 1 490.3 21.201 A 3.283 3.283 0 0 1 489.421 20.549 A 4.476 4.476 0 0 1 488.9 19.901 Q 488.3 17.701 485.75 16.051 Q 483.549 14.626 480.194 14.431 A 18.857 18.857 0 0 0 479.1 14.401 Q 476.213 14.401 474.165 15.068 A 8.482 8.482 0 0 0 472.25 15.951 A 5.015 5.015 0 0 0 469.886 19.559 A 7.274 7.274 0 0 0 469.8 20.701 Q 469.8 22.701 471.15 24.201 A 6.505 6.505 0 0 0 472.291 25.184 Q 473.583 26.079 475.65 26.801 A 44.168 44.168 0 0 0 477.848 27.498 Q 480.342 28.224 483.803 28.991 A 152.784 152.784 0 0 0 484.3 29.101 A 96.05 96.05 0 0 1 490.143 30.37 Q 492.977 31.085 495.36 31.909 A 41.665 41.665 0 0 1 499 33.351 A 24.19 24.19 0 0 1 502.925 35.572 Q 505.169 37.154 506.663 39.119 A 14.44 14.44 0 0 1 507.25 39.951 Q 509.791 43.834 509.896 49.604 A 27.51 27.51 0 0 1 509.9 50.101 A 19.803 19.803 0 0 1 508.865 56.602 A 17.421 17.421 0 0 1 506 61.801 Q 502.1 66.701 495.35 69.351 A 37.116 37.116 0 0 1 487.324 71.456 A 50.916 50.916 0 0 1 479.7 72.001 A 57.925 57.925 0 0 1 472.712 71.604 Q 469.205 71.177 466.247 70.29 A 28.764 28.764 0 0 1 463.1 69.151 A 29.907 29.907 0 0 1 458.266 66.546 Q 455.119 64.432 453.1 61.701 Q 449.7 57.101 449.5 51.901 A 1.901 1.901 0 0 1 449.897 50.742 A 2.648 2.648 0 0 1 450.15 50.451 A 2.189 2.189 0 0 1 450.96 49.925 A 2.169 2.169 0 0 1 451.7 49.801 Z M 240.2 71.001 L 227.3 71.001 A 2.822 2.822 0 0 1 226.443 70.876 A 2.299 2.299 0 0 1 225.5 70.301 A 2.363 2.363 0 0 1 224.814 68.806 A 3.207 3.207 0 0 1 224.8 68.501 L 224.8 3.501 A 2.822 2.822 0 0 1 224.925 2.644 A 2.299 2.299 0 0 1 225.5 1.701 A 2.363 2.363 0 0 1 226.995 1.015 A 3.207 3.207 0 0 1 227.3 1.001 L 240.2 1.001 A 2.852 2.852 0 0 1 241.184 1.165 A 2.53 2.53 0 0 1 242.05 1.701 A 2.325 2.325 0 0 1 242.797 3.365 A 3.12 3.12 0 0 1 242.8 3.501 L 242.8 27.601 L 267.4 27.601 L 267.4 3.501 A 2.822 2.822 0 0 1 267.525 2.644 A 2.299 2.299 0 0 1 268.1 1.701 A 2.363 2.363 0 0 1 269.595 1.015 A 3.207 3.207 0 0 1 269.9 1.001 L 282.8 1.001 A 2.822 2.822 0 0 1 283.657 1.125 A 2.299 2.299 0 0 1 284.6 1.701 A 2.363 2.363 0 0 1 285.286 3.195 A 3.207 3.207 0 0 1 285.3 3.501 L 285.3 68.501 Q 285.3 69.501 284.6 70.251 A 2.325 2.325 0 0 1 282.936 70.998 A 3.12 3.12 0 0 1 282.8 71.001 L 269.9 71.001 A 2.633 2.633 0 0 1 269.014 70.857 A 2.281 2.281 0 0 1 268.1 70.251 A 2.484 2.484 0 0 1 267.4 68.501 L 267.4 43.601 L 242.8 43.601 L 242.8 68.501 A 2.385 2.385 0 0 1 242.098 70.202 A 3.132 3.132 0 0 1 242.05 70.251 A 2.508 2.508 0 0 1 240.234 71 A 3.201 3.201 0 0 1 240.2 71.001 Z M 103.2 71.001 L 87.9 71.001 A 5.193 5.193 0 0 1 86.771 70.885 Q 85.842 70.678 85.2 70.101 A 5 5 0 0 1 84.073 68.652 A 4.713 4.713 0 0 1 83.8 68.001 L 63.4 4.001 Q 63.238 3.596 63.207 3.256 A 1.723 1.723 0 0 1 63.2 3.101 A 1.901 1.901 0 0 1 63.597 1.942 A 2.648 2.648 0 0 1 63.85 1.651 A 2.189 2.189 0 0 1 64.66 1.125 A 2.169 2.169 0 0 1 65.4 1.001 L 77.8 1.001 A 4.582 4.582 0 0 1 78.817 1.107 Q 79.553 1.274 80.083 1.705 A 2.822 2.822 0 0 1 80.3 1.901 Q 80.888 2.489 81.178 3.034 A 2.515 2.515 0 0 1 81.4 3.601 L 95.6 49.801 L 109.7 3.601 Q 109.932 2.983 110.491 2.306 A 8.161 8.161 0 0 1 110.85 1.901 Q 111.653 1.05 113.125 1.003 A 5.472 5.472 0 0 1 113.3 1.001 L 125.8 1.001 A 1.901 1.901 0 0 1 126.959 1.397 A 2.648 2.648 0 0 1 127.25 1.651 Q 127.9 2.301 127.9 3.101 A 1.91 1.91 0 0 1 127.862 3.47 Q 127.813 3.719 127.7 4.001 L 107.3 68.001 Q 107 69.201 106 70.101 A 3.299 3.299 0 0 1 104.69 70.809 Q 104.195 70.953 103.604 70.989 A 6.67 6.67 0 0 1 103.2 71.001 Z M 36 71.001 L 22.8 71.001 A 2.633 2.633 0 0 1 21.914 70.857 A 2.281 2.281 0 0 1 21 70.251 Q 20.3 69.501 20.3 68.501 L 20.3 16.701 L 2.5 16.701 A 2.633 2.633 0 0 1 1.614 16.557 A 2.281 2.281 0 0 1 0.7 15.951 Q 0 15.201 0 14.201 L 0 3.501 A 2.822 2.822 0 0 1 0.125 2.644 A 2.299 2.299 0 0 1 0.7 1.701 A 2.363 2.363 0 0 1 2.195 1.015 A 3.207 3.207 0 0 1 2.5 1.001 L 56.3 1.001 A 2.822 2.822 0 0 1 57.157 1.125 A 2.299 2.299 0 0 1 58.1 1.701 A 2.363 2.363 0 0 1 58.786 3.195 A 3.207 3.207 0 0 1 58.8 3.501 L 58.8 14.201 Q 58.8 15.201 58.1 15.951 A 2.325 2.325 0 0 1 56.436 16.698 A 3.12 3.12 0 0 1 56.3 16.701 L 38.5 16.701 L 38.5 68.501 Q 38.5 69.501 37.8 70.251 A 2.325 2.325 0 0 1 36.136 70.998 A 3.12 3.12 0 0 1 36 71.001 Z M 320.31 71.426 Q 315.904 70.717 312.2 69.131 A 29.885 29.885 0 0 1 311.9 69.001 Q 305.1 66.001 301.3 59.951 A 25.815 25.815 0 0 1 298.222 52.662 Q 297.288 49.066 297.1 44.801 Q 297 40.501 297 36.151 Q 297 31.801 297.1 27.501 A 37.862 37.862 0 0 1 298.052 20.414 Q 299.09 16.049 301.21 12.577 A 23.79 23.79 0 0 1 301.35 12.351 Q 305.2 6.201 312.05 3.101 A 34.146 34.146 0 0 1 320.942 0.512 A 45.423 45.423 0 0 1 327.9 0.001 A 45.143 45.143 0 0 1 335.801 0.659 A 33.216 33.216 0 0 1 343.8 3.101 Q 350.6 6.201 354.5 12.351 A 25.812 25.812 0 0 1 357.749 20.171 Q 358.569 23.563 358.7 27.501 Q 358.9 31.801 358.9 36.151 Q 358.9 40.501 358.7 44.801 Q 358.4 53.901 354.55 59.951 Q 350.7 66.001 343.9 69.001 Q 337.1 72.001 327.9 72.001 A 47.755 47.755 0 0 1 320.31 71.426 Z M 327.9 57.601 Q 333.2 57.601 336.55 54.401 A 10.041 10.041 0 0 0 338.924 50.759 Q 339.54 49.196 339.837 47.248 A 25.012 25.012 0 0 0 340.1 44.201 Q 340.3 39.801 340.3 35.901 Q 340.3 32.001 340.1 27.801 A 25.58 25.58 0 0 0 339.782 24.648 Q 339.515 23.059 339.041 21.737 A 12.351 12.351 0 0 0 338.35 20.151 A 10.786 10.786 0 0 0 336.379 17.454 A 9.397 9.397 0 0 0 334.1 15.801 A 12.409 12.409 0 0 0 330.01 14.537 A 15.804 15.804 0 0 0 327.9 14.401 Q 324.5 14.401 321.8 15.801 Q 319.1 17.201 317.5 20.151 A 13.194 13.194 0 0 0 316.376 23.038 Q 316.007 24.416 315.831 26.037 A 27.043 27.043 0 0 0 315.7 27.801 Q 315.6 32.001 315.6 35.901 Q 315.6 39.801 315.7 44.201 A 24.271 24.271 0 0 0 316.138 47.976 Q 316.982 52.138 319.35 54.401 A 11.434 11.434 0 0 0 326.167 57.506 A 15.475 15.475 0 0 0 327.9 57.601 Z" vector-effect="non-scaling-stroke"/></g></svg>
